<svg width="99" height="33" viewBox="0 0 99 33" fill="none" xmlns="http://www.w3.org/2000/svg">
<path d="M53.1122 20.1334C53.1122 18.3286 52.093 17.0758 50.6491 16.5449C51.9232 16.0778 52.8787 14.825 52.8787 13.2325C52.8787 10.7057 51.0526 9.19814 48.4196 9.19814H42.729V24.3164H48.6107C51.2862 24.3164 53.1122 22.8725 53.1122 20.1334ZM51.4985 20.0909C51.4985 21.7896 50.3306 22.8725 48.4621 22.8725H44.3428V17.3306H48.4621C50.3306 17.3306 51.4985 18.3923 51.4985 20.0909ZM51.2649 13.2537C51.2649 15.0586 49.9697 15.8867 48.2922 15.8867H44.3428V10.642H48.2922C49.9697 10.642 51.2649 11.4489 51.2649 13.2537ZM65.4846 24.3164V22.8725H57.7556V9.19814H56.1418V24.3164H65.4846ZM76.694 16.7573C76.694 13.2962 76.5878 11.9797 75.1652 10.5571C74.2309 9.62281 72.9781 9.07073 71.4069 9.07073C69.8356 9.07073 68.5616 9.62281 67.6273 10.5571C66.2046 11.9797 66.1197 13.2962 66.1197 16.7573C66.1197 20.2183 66.2046 21.5348 67.6273 22.9575C68.5616 23.8917 69.8356 24.4438 71.4069 24.4438C72.9781 24.4438 74.2309 23.8917 75.1652 22.9575C76.5878 21.5348 76.694 20.2183 76.694 16.7573ZM75.0803 16.7573C75.0803 19.8574 74.9741 20.9615 74.0186 21.9383C73.3179 22.639 72.4261 22.9999 71.4069 22.9999C70.3876 22.9999 69.4958 22.639 68.7951 21.9383C67.8396 20.9615 67.7335 19.8574 67.7335 16.7573C67.7335 13.6572 67.8396 12.553 68.7951 11.5763C69.4958 10.8756 70.3876 10.5146 71.4069 10.5146C72.4261 10.5146 73.3179 10.8756 74.0186 11.5763C74.9741 12.553 75.0803 13.6572 75.0803 16.7573ZM89.5686 18.8169V16.4175H84.239V17.7977H87.9549V18.9656C87.9549 20.1122 87.7213 20.9403 87.1055 21.7047C86.4048 22.554 85.3432 22.9999 84.239 22.9999C83.1986 22.9999 82.3068 22.639 81.6273 21.9383C80.6718 20.9615 80.5656 19.8574 80.5656 16.7573C80.5656 13.6572 80.6718 12.553 81.6273 11.5763C82.3068 10.8756 83.1986 10.5146 84.239 10.5146C86.1288 10.5146 87.4877 11.6612 87.9124 13.5935H89.5262C89.1015 10.9818 87.0843 9.07073 84.239 9.07073C82.6677 9.07073 81.3937 9.62281 80.4594 10.5571C79.0368 11.9797 78.9519 13.2962 78.9519 16.7573C78.9519 20.2183 79.0368 21.5348 80.4594 22.9575C81.3937 23.8917 82.6677 24.4438 84.239 24.4438C85.7891 24.4438 87.2117 23.8705 88.2734 22.7027C89.2501 21.6197 89.5686 20.5581 89.5686 18.8169Z" fill="#223C50"/>
<g clip-path="url(#clip0)">
<mask id="mask0" mask-type="alpha" maskUnits="userSpaceOnUse" x="0" y="0" width="33" height="33">
<path d="M0.811523 32.5868H32.5961V0.803223H0.811523V32.5868ZM19.44 24.6417H15.7106L19.0797 8.74938H27.8523L27.1954 11.9278H22.1522L21.5377 14.7461H26.1783L25.5002 17.9245H20.8597L19.44 24.6417ZM13.1754 19.1421H14.4897C14.0044 21.7301 12.0633 24.6417 9.03046 24.6417C4.64289 24.6417 5.73473 19.4858 6.42218 16.2709C7.08942 13.1572 8.42389 8.74938 12.4475 8.74938C15.1771 8.74938 16.087 10.9128 15.5815 13.4807H14.2672C14.5099 11.6812 14.2066 9.92209 12.1644 9.92209C8.96981 9.92209 8.10038 14.5321 7.67578 16.5742C7.19051 18.8994 6.09868 23.469 9.43485 23.469C11.6994 23.469 12.7104 21.0022 13.1754 19.1421Z" fill="white"/>
</mask>
<g mask="url(#mask0)">
<path d="M0.811523 32.5868H32.5961V0.803223H0.811523V32.5868ZM19.44 24.6417H15.7106L19.0797 8.74938H27.8523L27.1954 11.9278H22.1522L21.5377 14.7461H26.1783L25.5002 17.9245H20.8597L19.44 24.6417ZM13.1754 19.1421H14.4897C14.0044 21.7301 12.0633 24.6417 9.03046 24.6417C4.64289 24.6417 5.73473 19.4858 6.42218 16.2709C7.08942 13.1572 8.42389 8.74938 12.4475 8.74938C15.1771 8.74938 16.087 10.9128 15.5815 13.4807H14.2672C14.5099 11.6812 14.2066 9.92209 12.1644 9.92209C8.96981 9.92209 8.10038 14.5321 7.67578 16.5742C7.19051 18.8994 6.09868 23.469 9.43485 23.469C11.6994 23.469 12.7104 21.0022 13.1754 19.1421Z" fill="#223C50"/>
<path d="M32.5961 0.803223H0.811523V32.5878H32.5961V0.803223Z" fill="#223C50"/>
</g>
</g>
<defs>
<clipPath id="clip0">
<rect width="31.7846" height="31.7846" fill="white" transform="translate(0.811523 0.803223)"/>
</clipPath>
</defs>
</svg>
