<svg width="70" height="56" fill="none" xmlns="http://www.w3.org/2000/svg"><path d="M0 54.82h69.36v.658H0v-.658Z" fill="#B8B7B7"/><path d="M10.81 55.307H2.613V42.664h.658V54.65h6.89V33.656H3.27v6.387h-.658v-7.036h8.197v22.3Zm10.338-26.569h.657v3.434h-.657v-3.434Z" fill="#B8B7B7"/><path d="M19.339 55.307H10.16V28.738h.65V54.65h8.529v.657Zm1.81-15.921h.656v12.96h-.657v-12.96Zm26.406 0h.657v12.96h-.657v-12.96ZM59.362 55.47H47.555v-.325l.324-.008v-.317h10.826V28.738h.657V55.47ZM47.555 28.738h.657v3.434h-.657v-3.434Z" fill="#B8B7B7"/><path d="M60.757 29.064H46.166V26.04h14.591v3.024Zm-13.918-.65h13.269v-1.74H46.815l.024 1.74Zm19.91 27.056h-8.041V33.007h8.042v7.037h-.657v-6.387h-6.728V54.82h6.727V42.665h.658V55.47ZM23.279 29.064H8.686V26.04h14.592v3.024Zm-13.919-.65h13.27v-1.74H9.343l.015 1.74Zm1.392 14.576H1.402V39.71h9.349v3.279Zm-8.691-.65h8.034v-1.972H2.06v1.972Z" fill="#B8B7B7"/><path d="M68.153 42.99h-9.348v-3.28h9.348v3.28Zm-8.691-.65h8.034v-1.972h-8.034v1.972ZM8.442 55.346h-3.27v-9.673a1.64 1.64 0 0 1 3.27 0v9.673Zm-2.613-.657h1.957v-9.017a.982.982 0 0 0-1.957 0v9.017ZM8.621 38.65H4.8v-2.32a1.547 1.547 0 0 1 1.546-1.546h.665a1.547 1.547 0 0 1 1.547 1.547l.062 2.32Zm-3.163-.657h2.505V36.37a.92.92 0 0 0-.92-.92h-.665a.92.92 0 0 0-.92.92v1.624Zm59 17.352h-3.272v-9.673a1.64 1.64 0 0 1 3.271 0v9.673Zm-2.599-.657h1.956v-9.017a.982.982 0 0 0-1.956 0v9.017Zm2.776-16.038h-3.82v-2.32a1.546 1.546 0 0 1 1.547-1.546h.665a1.546 1.546 0 0 1 1.546 1.547l.062 2.32Zm-3.163-.657h2.506V36.37a.92.92 0 0 0-.92-.92h-.666a.92.92 0 0 0-.92.92v1.624Zm-11.127 1.717H19.013V36.27h31.332v3.44Zm-30.675-.657h30.018v-2.127H19.67v2.127Zm30.675 16.408H19.013v-3.449h31.332v3.449Zm-30.675-.657h30.018V52.67H19.67v2.135Z" fill="#B8B7B7"/><path d="M52.066 36.927H17.269l3.766-5.088H48.3l3.766 5.088Zm-33.467-.657h32.16l-2.815-3.773H21.4l-2.8 3.773Zm6.078-14.104H44.69v.657H24.677v-.657Z" fill="#B8B7B7"/><path d="M45.009 32.496h-20.67v-6.688h.658v6.031h19.355v-6.48h.657v7.137Z" fill="#B8B7B7"/><path d="M44.848 26.264H24.496l-.974-4.09h22.316l-.99 4.09Zm-19.85-.657H44.33l.665-2.791H24.35l.65 2.791Zm.658 4.756h.657v2.002h-.657v-2.002Zm1.64 0h.657v2.002h-.657v-2.002Zm1.639 0h.657v2.002h-.657v-2.002Zm1.639 0h.657v2.002h-.657v-2.002Zm-27.96 1.152h.657v2.002h-.658v-2.002Zm1.639 0h.657v2.002h-.657v-2.002Zm1.639 0h.657v2.002h-.657v-2.002Zm1.64 0h.656v2.002h-.657v-2.002Zm53.632 0h.657v2.002h-.657v-2.002Zm1.647 0h.657v2.002h-.657v-2.002Zm1.64 0h.656v2.002h-.657v-2.002Zm1.639 0h.657v2.002h-.657v-2.002ZM38.12 30.363h.657v2.002h-.657v-2.002Zm1.64 0h.656v2.002h-.657v-2.002Zm1.639 0h.657v2.002H41.4v-2.002Zm1.647 0h.657v2.002h-.657v-2.002Zm-5.599 2.15h-5.575v-3.937h1.144a1.305 1.305 0 0 1 0-.17 1.647 1.647 0 0 1 1.64-1.631 1.646 1.646 0 0 1 1.686 1.631c.003.054.003.109 0 .163h1.167l-.062 3.943Zm-4.918-.689H36.8v-2.629H35.39l.194-.448a.997.997 0 0 0-.905-1.361c-.263 0-.516.102-.704.286a.99.99 0 0 0-.216 1.059l.185.456h-1.4l-.015 2.637Zm-13.84 16.64h-5.746v-7.848h5.745v7.848Zm-5.089-.657h4.43v-6.534h-4.43v6.534Zm42.73.657h-5.745v-7.848h5.745v7.848Zm-5.088-.657h4.43v-6.534h-4.43v6.534Z" fill="#B8B7B7"/><path d="M15.812 41.188a1.972 1.972 0 1 1 1.971-1.964 1.964 1.964 0 0 1-1.971 1.964Zm0-3.278a1.314 1.314 0 1 0 0 2.628 1.314 1.314 0 0 0 0-2.628Zm37.642 3.278a1.972 1.972 0 1 1 1.821-1.21 1.963 1.963 0 0 1-1.822 1.21Zm0-3.278a1.314 1.314 0 1 0 0 2.628 1.314 1.314 0 0 0 0-2.628Zm-12.558-17.8H28.462a3.38 3.38 0 0 1-3.38-3.349c0-2.582 2.089-4.36 4.115-6.077.641-.55 1.245-1.068 1.786-1.609l.1-.093h7.192l.092.093c.596.596 1.26 1.168 1.903 1.717 1.971 1.67 4.005 3.41 4.005 5.97a3.38 3.38 0 0 1-3.38 3.348ZM31.354 9.616a37.283 37.283 0 0 1-1.732 1.547c-1.91 1.624-3.866 3.302-3.866 5.575a2.73 2.73 0 0 0 2.721 2.722h12.419a2.73 2.73 0 0 0 2.722-2.699c0-2.258-1.833-3.82-3.774-5.474-.618-.526-1.26-1.075-1.84-1.647l-6.65-.024Z" fill="#B8B7B7"/><path d="M41.982 22.816h-14.6v-3.441h14.6v3.44Zm-13.919-.65h13.262v-2.134H28.04l.023 2.134Zm10.47-12.635H30.16v-2.62h8.374v2.62Zm-7.732-.657h7.09V7.567h-7.067L30.8 8.874Z" fill="#B8B7B7"/><path d="M35.855 7.567H32.66a1.06 1.06 0 0 1-.433-.255.317.317 0 0 1-.085-.333.472.472 0 0 1-.062-.433c.02-.04.043-.08.07-.116v-.046a1.142 1.142 0 0 1-.039-.155.967.967 0 0 1 .302-.835l.116-.116c.086-.078.16-.169.216-.27.066-.26.036-.535-.085-.774l-.185-.58a1.276 1.276 0 0 1-.078-.65 3.041 3.041 0 0 1-.549-.625.325.325 0 0 1 0-.41l.348-.371a1.64 1.64 0 0 1 .603-.449.835.835 0 0 1 .449-.07.595.595 0 0 1 .201-.363.41.41 0 0 1 .348-.07l.131-.054c.223-.061.458-.061.68 0h.186a.425.425 0 0 1 .542.062.425.425 0 0 1 .092.402.425.425 0 0 1 .232-.07.55.55 0 0 1 .356.132c.347.217.634.518.835.874a.634.634 0 0 1-.162.85l-.1.055a.487.487 0 0 1-.287.208c.027.182.027.367 0 .55-.04.172-.088.342-.147.51-.12.239-.158.51-.108.773.061.119.142.226.24.317l.139.155a1.314 1.314 0 0 1 .247 1.415 1.49 1.49 0 0 1-.309.37.927.927 0 0 0-.17.186.326.326 0 0 0 0 .055.34.34 0 0 1-.34.131Zm-2.977-.657h2.807c.061-.078.131-.14.185-.201a.773.773 0 0 0 .186-.209.673.673 0 0 0-.178-.68l-.116-.132a1.76 1.76 0 0 1-.363-.526 1.74 1.74 0 0 1 .092-1.206 2.51 2.51 0 0 0 .124-.418 1.206 1.206 0 0 0-.124-.773.341.341 0 0 1 .054-.386.332.332 0 0 1 .38-.062l.2.1a.364.364 0 0 1 .124-.077 1.778 1.778 0 0 0-.572-.58.58.58 0 0 1-.905-.147.688.688 0 0 1-.054-.317 1.052 1.052 0 0 1-.255-.054H34.4a.596.596 0 0 0-.325 0 1.098 1.098 0 0 1-.2.077l-.07.333a.317.317 0 0 1-.271.255.333.333 0 0 1-.34-.155.162.162 0 0 0-.132 0c-.134.07-.252.168-.348.286l-.162.178.1.124a.325.325 0 0 1 .24 0 .48.48 0 0 1 .279.564 1.39 1.39 0 0 1-.078.201v.047a.719.719 0 0 0 .062.317l.193.587c.183.386.205.828.062 1.23a1.545 1.545 0 0 1-.348.456l-.093.1a.456.456 0 0 0-.146.28v.076a.626.626 0 0 1 0 .48.295.295 0 0 1 .054.232ZM12.37 30.23h.657v1.81h-.657v-1.81Zm1.64 0h.657v1.81h-.658v-1.81Zm1.639 0h.657v1.81h-.657v-1.81Zm1.639 0h.657v1.81h-.657v-1.81Zm1.64 0h.657v1.81h-.658v-1.81Zm30.922 0h.657v1.81h-.657v-1.81Zm1.639 0h.657v1.81h-.657v-1.81Zm1.64 0h.656v1.81h-.657v-1.81Zm1.639 0h.657v1.81h-.657v-1.81Zm1.639 0h.657v1.81h-.657v-1.81ZM26.15 52.671h-2.629l.17-13.617h2.32l.14 13.617Zm-1.964-.657h1.33l-.154-12.303h-1.02l-.156 12.303Zm5.25.657H26.8l.17-13.617h2.32l.147 13.617Zm-1.971-.657h1.307l-.163-12.303h-.99l-.154 12.303Zm5.25.657H30.08l.177-13.617h2.282l.177 13.617Zm-1.971-.657h1.306l-.154-12.303h-.967l-.185 12.303Zm5.25.657h-2.63l.171-13.617h2.32l.139 13.617Zm-1.972-.657h1.307l-.155-12.303h-.99l-.162 12.303Zm5.25.657h-2.628l.17-13.617h2.32l.139 13.617Zm-1.963-.657h1.299l-.155-12.303h-.99l-.154 12.303Zm5.219.657h-2.63l.171-13.617h2.32l.139 13.617Zm-1.964-.657h1.307l-.116-12.303h-1.013l-.178 12.303Zm5.273.657h-2.636l.178-13.617h2.28l.178 13.617Zm-1.971-.657h1.306l-.154-12.303h-.998l-.154 12.303Zm-21.96-25.37a.347.347 0 0 1-.124 0 .333.333 0 0 1-.178-.434 4.987 4.987 0 0 0 .363-1.879 3.373 3.373 0 0 0-1.407-2.73 17.322 17.322 0 0 1-2.73-2.427c-.7-.764-1.329-1.59-1.879-2.467a17.393 17.393 0 0 1-4.593 4.918c-.414.31-.752.709-.99 1.167a3.332 3.332 0 0 0-.378 1.547 4.847 4.847 0 0 0 .37 1.879.34.34 0 0 1-.185.433.327.327 0 0 1-.357-.077.325.325 0 0 1-.068-.109 5.513 5.513 0 0 1-.41-2.126 3.99 3.99 0 0 1 .44-1.84 4.061 4.061 0 0 1 1.192-1.392 16.694 16.694 0 0 0 4.693-5.197l.279-.494.286.494a16.552 16.552 0 0 0 2.08 2.83c.795.864 1.679 1.641 2.637 2.32a4.036 4.036 0 0 1 1.677 3.263 5.513 5.513 0 0 1-.417 2.127.317.317 0 0 1-.302.193Z" fill="#B8B7B7"/><path d="M10.05 25.986h11.855v.657H10.05v-.657Zm49.334.657a.347.347 0 0 1-.123 0 .333.333 0 0 1-.178-.433 4.988 4.988 0 0 0 .363-1.879 3.373 3.373 0 0 0-1.407-2.73 17.321 17.321 0 0 1-2.73-2.427 17.005 17.005 0 0 1-1.879-2.49 17.391 17.391 0 0 1-4.593 4.918 3.54 3.54 0 0 0-.997 1.167 3.325 3.325 0 0 0-.372 1.547 4.987 4.987 0 0 0 .364 1.879.332.332 0 0 1-.178.433.325.325 0 0 1-.425-.186 5.514 5.514 0 0 1-.418-2.126 4 4 0 0 1 .449-1.84 4.059 4.059 0 0 1 1.19-1.392 16.578 16.578 0 0 0 4.686-5.197l.286-.494.287.494a16.566 16.566 0 0 0 2.08 2.83 16.48 16.48 0 0 0 2.636 2.32 4.061 4.061 0 0 1 1.678 3.263 5.512 5.512 0 0 1-.417 2.127.325.325 0 0 1-.302.216Z" fill="#B8B7B7"/><path d="M47.532 25.986h11.854v.657H47.532v-.657Zm-10.122-5.97a.264.264 0 0 1-.123 0 .324.324 0 0 1-.178-.425 2.18 2.18 0 0 0 .154-.773 1.392 1.392 0 0 0-.572-1.121 7.907 7.907 0 0 1-1.291-1.145 9.444 9.444 0 0 1-.773-.928 8.257 8.257 0 0 1-2.01 2.08c-.169.13-.308.294-.41.48a1.37 1.37 0 0 0-.155.634c.004.265.056.527.154.773a.325.325 0 1 1-.603.248 2.707 2.707 0 0 1-.209-1.044 2.064 2.064 0 0 1 .828-1.64 7.515 7.515 0 0 0 2.119-2.32l.278-.494.286.495a7.671 7.671 0 0 0 2.126 2.328 2.033 2.033 0 0 1 .859 1.6c-.001.357-.07.712-.201 1.044a.333.333 0 0 1-.279.209Z" fill="#B8B7B7"/><path d="M31.941 19.36h5.467v.657h-5.467v-.658Z" fill="#B8B7B7"/></svg>