<svg width="67" height="54" fill="none" xmlns="http://www.w3.org/2000/svg"><g clip-path="url(#a)" fill="#00AEEF"><path d="M55.212 53.5H12.395v-7.887h42.819V53.5Zm-42.193-.628h41.569v-6.638H13.019v6.638Z"/><path d="M50.231 53.5H17.387v-7.887H50.23V53.5Zm-32.22-.62h31.626v-6.646H18.012v6.645Z"/><path d="M35.628 46.074h-3.75v-2.208a1.872 1.872 0 0 1 2.24-1.83 1.878 1.878 0 0 1 1.37 1.116c.093.227.14.47.14.714v2.208Zm-3.086-.621h2.5v-1.587a1.22 1.22 0 0 0-.386-.877 1.238 1.238 0 0 0-.903-.334c-.33.002-.647.134-.881.366a1.245 1.245 0 0 0-.368.876l.038 1.556Z"/><path d="M47.051 46.073h-6.17v-4.951H26.771v4.959h-6.17v-5.618h26.45v5.61Zm-5.561-.62h4.937v-4.331H41.49v4.33Zm-20.24 0h4.898v-4.331h-4.93l.032 4.33Z"/><path d="M35.628 40.96h-3.75v-2.207c0-.494.198-.968.55-1.317a1.88 1.88 0 0 1 2.65 0c.352.35.55.823.55 1.317v2.208Zm-3.086-.62h2.5v-1.587a1.222 1.222 0 0 0-.77-1.151 1.261 1.261 0 0 0-1.362.276 1.245 1.245 0 0 0-.368.875v1.587Z"/><path d="M46.05 41.122H21.598v-5.618h5.8v4.852h12.843v-4.852h5.809v5.618Zm-5.168-.636h4.55v-4.361h-4.55v4.36Zm-18.683 0h4.551v-4.361H22.2v4.36Z"/><path d="M35.628 35.85h-3.75v-2.208c0-.494.198-.968.55-1.317a1.88 1.88 0 0 1 2.65 0c.352.35.55.823.55 1.317v2.207Zm-3.086-.622h2.5v-1.586a1.222 1.222 0 0 0-.77-1.152 1.261 1.261 0 0 0-1.362.276 1.245 1.245 0 0 0-.368.876v1.586Z"/><path d="M45.177 36.148H40.24v-.246H27.366v.245H22.43v-5.61h5.978v4.714h10.799v-4.714H45.2l-.023 5.61Zm-4.297-.621h3.68v-4.37h-4.752v4.124h1.072v.246Zm-17.818 0h3.687v-.246h1.018v-4.123h-4.712l.007 4.369Z"/><path d="M35.628 30.737h-3.75V28.53c0-.495.198-.968.55-1.318a1.88 1.88 0 0 1 2.65 0c.352.35.55.823.55 1.317v2.208Zm-3.086-.621h2.5v-1.587a1.222 1.222 0 0 0-.805-1.127 1.24 1.24 0 0 0-.484-.076c-.33.002-.647.134-.881.366a1.245 1.245 0 0 0-.368.876l.038 1.548Z"/><path d="M44.107 31.158h-4.921v-.422h-10.8v.422h-4.874v-5.58h5.708v4.545h9.14v-4.545h5.747v5.58Zm-4.297-.62h3.672v-4.37h-4.497v3.948h.825v.421Zm-15.674 0h3.634v-.422h.771v-3.917h-4.404v4.338Z"/><path d="M42.587 26.222H38.36v-.583h-9.14v.583h-4.197v-5.603h5.122v4.407h7.259v-4.369h5.183v5.565Zm-3.602-.62h2.977V21.24h-3.926v3.786h.949v.575Zm-13.337 0h2.947v-.576h.925V21.24h-3.856l-.016 4.361Zm15.813 20.47H26.15v-5.587H41.46v5.588Zm-5.831-.62h5.206v-4.33H26.774v4.338h5.107v-1.594c0-.494.197-.968.549-1.317a1.88 1.88 0 0 1 2.65 0c.352.349.55.823.55 1.317v1.586Zm-3.086 0h2.5v-1.586a1.221 1.221 0 0 0-.803-1.135 1.242 1.242 0 0 0-.486-.076c-.33.002-.647.133-.881.365a1.245 1.245 0 0 0-.368.876l.038 1.556Z"/><path d="M35.628 46.073H31.88v-2.208c0-.494.197-.967.549-1.317a1.88 1.88 0 0 1 2.65 0c.352.35.55.823.55 1.317v2.208Zm-3.085-.621h2.5v-1.587a1.22 1.22 0 0 0-.387-.876 1.235 1.235 0 0 0-.902-.335c-.33.002-.647.134-.881.366a1.245 1.245 0 0 0-.369.876l.039 1.556Zm-6.395-5.066H41.46v.728H26.148v-.728Z"/><path d="M26.148 45.452H41.46v.667H26.148v-.667Zm14.733-4.445H26.742V35.28h14.14v5.726Zm-5.253-.652h4.629v-4.453h-12.89v4.453h4.513v-1.602c0-.494.197-.967.549-1.317a1.88 1.88 0 0 1 2.65 0c.352.35.55.823.55 1.317v1.602Zm-3.085-.046h2.5v-1.556a1.222 1.222 0 0 0-.77-1.151 1.261 1.261 0 0 0-1.362.276 1.245 1.245 0 0 0-.368.875v1.556Z"/><path d="M35.63 40.961h-3.75v-2.207c0-.494.198-.968.55-1.317a1.88 1.88 0 0 1 2.65 0c.352.349.55.823.55 1.317v2.207Zm-3.086-.62h2.5v-1.587a1.219 1.219 0 0 0-.362-.883 1.235 1.235 0 0 0-.888-.359 1.26 1.26 0 0 0-.881.366 1.245 1.245 0 0 0-.369.876v1.586Zm7.266-4.462H27.77v-5.732h12.04v5.733Zm-4.18-.628h3.556v-4.484h-10.8v4.484h3.472v-1.61c0-.493.197-.967.549-1.316a1.88 1.88 0 0 1 2.65 0c.352.349.55.822.55 1.316l.023 1.61Zm-3.086 0h2.5v-1.61a1.219 1.219 0 0 0-.362-.882 1.233 1.233 0 0 0-.888-.36c-.331.003-.648.134-.881.367a1.246 1.246 0 0 0-.369.876v1.609Z"/><path d="M35.629 35.849h-3.75V33.64c0-.494.198-.967.55-1.317a1.88 1.88 0 0 1 2.65 0c.352.35.55.823.55 1.317v2.208Zm-3.086-.621h2.5V33.64a1.218 1.218 0 0 0-.362-.882 1.235 1.235 0 0 0-.888-.36c-.331.003-.648.134-.882.367a1.245 1.245 0 0 0-.368.875v1.587Zm6.44-4.484h-10.39v-5.718h10.39v5.718Zm-3.354-.62h2.73V25.64h-9.14v4.483h2.66V28.53c0-.494.198-.968.55-1.317a1.88 1.88 0 0 1 2.65 0c.352.35.55.823.55 1.317v1.594Zm-3.086 0h2.5v-1.595a1.219 1.219 0 0 0-.39-.872 1.236 1.236 0 0 0-.899-.331c-.33.002-.647.133-.881.366a1.245 1.245 0 0 0-.368.875l.038 1.556Z"/><path d="M35.628 30.737h-3.75V28.53c0-.495.198-.968.55-1.318a1.88 1.88 0 0 1 2.65 0c.352.35.55.823.55 1.317v2.208Zm-3.086-.621h2.5v-1.587a1.222 1.222 0 0 0-.805-1.127 1.24 1.24 0 0 0-.484-.076c-.33.002-.647.134-.881.366a1.245 1.245 0 0 0-.368.876l.038 1.548Zm3.086 15.958h-3.75v-2.208c0-.494.198-.968.55-1.317a1.88 1.88 0 0 1 2.65 0c.352.35.55.823.55 1.317v2.208Zm-3.086-.621h2.5v-1.587a1.22 1.22 0 0 0-.386-.877 1.235 1.235 0 0 0-.903-.334c-.33.002-.647.134-.881.366a1.245 1.245 0 0 0-.368.876l.038 1.556Zm3.086-4.492h-3.75v-2.207c0-.494.198-.968.55-1.317a1.88 1.88 0 0 1 2.65 0c.352.35.55.823.55 1.317v2.207Zm-3.086-.62h2.5v-1.587a1.222 1.222 0 0 0-.77-1.151 1.261 1.261 0 0 0-1.362.276 1.245 1.245 0 0 0-.368.875v1.587Zm3.086-4.492h-3.75v-2.207c0-.494.198-.968.55-1.317a1.88 1.88 0 0 1 2.65 0c.352.349.55.823.55 1.317v2.207Zm-3.086-.62h2.5v-1.587a1.222 1.222 0 0 0-.77-1.152 1.261 1.261 0 0 0-1.362.276 1.245 1.245 0 0 0-.368.876v1.586Z"/><path d="M35.628 30.737h-3.75v-2.208c0-.494.198-.967.55-1.317a1.88 1.88 0 0 1 2.65 0c.352.35.55.823.55 1.317v2.208Zm-3.086-.621h2.5v-1.587a1.222 1.222 0 0 0-.805-1.128 1.24 1.24 0 0 0-.484-.075c-.33.002-.647.133-.881.366a1.245 1.245 0 0 0-.368.876l.038 1.548Zm3.086-4.5h-3.75v-2.199c0-.494.198-.968.55-1.317a1.88 1.88 0 0 1 2.65 0c.352.35.55.823.55 1.317v2.2Zm-3.086-.628h2.5v-1.57a1.222 1.222 0 0 0-.77-1.152 1.261 1.261 0 0 0-1.362.276 1.245 1.245 0 0 0-.368.875v1.571Z"/><path d="M35.63 25.624H31.88v-.62l.309-.016h3.44v.636Zm12.095 27.761H19.887v-5.794h27.838v5.794Zm-27.214-.62H47.1v-4.6H20.51v4.6Zm28.31-43.19H18.613V3.037H48.82v6.538ZM19.238 8.93h28.949V3.658h-28.95V8.93Zm1.565 6.768h4.49v.62h-4.49v-.62Zm21.398-.092h4.49v.62h-4.49v-.62ZM19.277 20.75h4.844v.62h-4.844v-.62Zm-1.951 9.787h4.165v.621h-4.165v-.62Zm-.047 4.913h3.232v.621H17.28v-.62Zm29.289.146H49.8v.62h-3.232v-.62ZM16.485 40.5h3.054v.621h-3.054v-.62Zm31.086-.046h3.054v.621h-3.054v-.62Zm-1.373-9.795h4.08v.62h-4.08v-.62Zm-1.165-4.882h3.895v.62h-3.895v-.62Zm-1.674-5.181h4.844v.62h-4.844v-.62ZM16.215 41.933h2.16v.621h-2.16v-.62Zm2.962-.06h.987v.62h-.987v-.62Zm-2.407-5.151h2.16v.62h-2.16v-.62Zm2.962-.062h.988v.621h-.988v-.62Zm-2.345-4.721h2.16v.62h-2.16v-.62Zm2.962-.061h.988v.62h-.988v-.62Zm-2.036-4.967h2.16v.62h-2.16v-.62Zm2.962-.061h.987v.62h-.987v-.62Zm.802-4.783h.987v.62h-.987v-.62Zm-1.728-4.844h2.16v.62h-2.16v-.62Zm2.962-.061h.988v.62h-.988v-.62Zm19.562-.085h2.16v.621h-2.16v-.62Zm2.962-.06h.987v.62h-.987v-.62Zm-1.682 5.042h2.16v.621h-2.16v-.62Zm2.962-.06h.988v.62h-.988V22Zm-1.928 5.096h2.16v.62h-2.16v-.62Zm2.962-.061h.987v.62h-.987v-.62Zm-2.221 5.097h2.16v.62h-2.16v-.62Zm2.962-.062h.987v.621h-.988v-.62Zm-2.423 5.044h2.16v.62h-2.16v-.62Zm2.962-.062h.988v.621h-.988v-.62Zm-2.028 4.905h2.16v.621H47.4v-.62Zm2.962-.06h.987v.62h-.987v-.62ZM25.402 11.007h.624v3.227h-.624v-3.227Zm-1.32 0h.625v3.227h-.624v-3.227Zm-1.31 0h.624v3.227h-.625v-3.227Zm-1.32 0h.625v3.227h-.625v-3.227Zm-1.311 0h.625v3.227h-.625v-3.227Zm26.727.238h.625v3.226h-.625v-3.226Zm-1.31 0h.624v3.226h-.625v-3.226Zm-1.32 0h.625v3.226h-.625v-3.226Zm-1.311 0h.625v3.226h-.625v-3.226Zm-1.32 0h.626v3.226h-.625v-3.226Z"/><path d="M18.613.5h.625v2.851h-.625V.5Zm29.574.169h.624v2.85h-.624V.67ZM0 52.872h67v.62H0v-.62Zm23.18-4.017h.593v3.22h-.594v-3.22Zm1.881 0h.594v3.22h-.594v-3.22Zm1.875 0h.594v3.22h-.594v-3.22Zm1.874 0h.594v3.22h-.594v-3.22Zm1.882 0h.594v3.22h-.594v-3.22Zm1.875 0h.594v3.22h-.594v-3.22Zm1.882 0h.594v3.22h-.594v-3.22Zm1.874 0h.594v3.22h-.594v-3.22Zm1.882 0h.594v3.22h-.594v-3.22Zm1.875 0h.594v3.22h-.594v-3.22Zm1.882 0h.594v3.22h-.594v-3.22Zm1.874 0h.594v3.22h-.594v-3.22ZM23.086 1.588h.626v1.656h-.625V1.588Zm1.497 0h.625v1.656h-.625V1.588Zm3.155 0h.625v1.656h-.625V1.588Zm1.496 0h.625v1.656h-.625V1.588Zm8.208 0h.624v1.656h-.624V1.588Zm1.488 0h.625v1.656h-.625V1.588Zm3.07 0h.625v1.656H42V1.588Zm1.497 0h.625v1.656h-.625V1.588ZM14.781 45.827 18.536 9.29l.621.063-3.754 36.538-.622-.063ZM48.262 9.362l.621-.065 3.91 36.537-.621.066-3.91-36.538ZM27.645 4.976h.624v4.253h-.624V4.976Z"/><path d="M39.765 9.321h-.633V6.915H28.148v-.621h11.617V9.32Z"/><path d="M39.153 4.884h.624v1.724h-.624V4.884Zm-9.01 16.31h-3.772V15.59h4.405v4.767h-.633v.836Zm-3.147-.613h2.515v-.843h.632v-3.526h-3.147v4.369Zm14.224.613h-3.757v-.843h-.725v-4.76h4.482v5.603Zm-3.132-.621h2.507v-4.361h-3.232v3.526h.725v.835Z"/><path d="M30.778 16.236h-3.571v-5.603h4.235v4.031h1.056v.644h-1.72v.928Zm-2.938-.621h2.314v-.928h.701v-3.456H27.84v4.384Zm12.55.62H36.74v-.927h-1.743v-.644h1.056v-4.031h4.335v5.603Zm-3.024-.62h2.399V11.23h-3.086v3.433h.687v.95Z"/><path d="M37.365 20.358h-2.368v-2.115a1.221 1.221 0 0 0-.77-1.151 1.242 1.242 0 0 0-.48-.09c-.331 0-.649.13-.883.363a1.237 1.237 0 0 0-.366.878v2.115h-2.314v-5.671h7.212l-.031 5.671Zm-1.743-.62h1.118v-4.43h-5.963v4.43h1.096v-1.534c0-.493.197-.967.549-1.316a1.88 1.88 0 0 1 2.65 0c.352.349.55.823.55 1.316v1.533Z"/><path d="M36.68 15.285h-1.682v-2.154a1.222 1.222 0 0 0-.77-1.15 1.24 1.24 0 0 0-.48-.091c-.331 0-.65.13-.883.363a1.238 1.238 0 0 0-.367.878v2.154h-1.642V9.974h5.862l-.039 5.311Zm-1.057-.62h.431v-4.063h-4.628v4.062h.432v-1.533a1.852 1.852 0 0 1 .55-1.317 1.877 1.877 0 0 1 2.042-.403 1.875 1.875 0 0 1 1.014 1.008c.095.226.143.468.143.712l.016 1.533Zm0 5.694h-3.75v-2.115c0-.494.198-.968.55-1.317a1.88 1.88 0 0 1 2.65 0c.352.349.55.823.55 1.317v2.115Zm-3.086-.62h2.5v-1.534a1.219 1.219 0 0 0-.362-.882 1.233 1.233 0 0 0-.888-.36c-.332 0-.65.131-.884.364a1.238 1.238 0 0 0-.366.878v1.533Z"/><path d="M35.621 15.285h-3.749V13.13c0-.494.198-.968.55-1.317a1.88 1.88 0 0 1 2.65 0c.351.35.549.823.549 1.317v2.154Zm-3.086-.621h2.5V13.13a1.219 1.219 0 0 0-.362-.883 1.235 1.235 0 0 0-.888-.359c-.331 0-.65.131-.883.364a1.238 1.238 0 0 0-.367.878v1.533Zm5.5 10.952h-3.031v-2.2a1.222 1.222 0 0 0-.77-1.15 1.261 1.261 0 0 0-1.362.276 1.245 1.245 0 0 0-.367.875v2.2h-2.986v-5.88h8.57v1.534h-.054v4.345Zm-2.406-.59h1.774v-4.368h.062v-.261h-7.32v4.599h1.735v-1.58c0-.493.197-.967.549-1.316a1.88 1.88 0 0 1 2.65 0c.352.35.55.823.55 1.317v1.61Z"/></g><defs><clipPath id="a"><path fill="#fff" transform="translate(0 0.5)" d="M0 0h67v53H0z"/></clipPath></defs></svg>