<svg width="68" height="56" fill="none" xmlns="http://www.w3.org/2000/svg"><g clip-path="url(#a)" fill="#B8B7B7"><path d="M57.64 56H10.36V45.43h.659v9.919H56.98V45.43h.66V56Zm0-12.222h-.66V38.86H11.018v4.917h-.659V38.2h47.28v5.577Z"/><path d="m41.897 43.67-.296-.593 9.456-4.692 6.498-.083.017.65-6.355.084-9.32 4.634ZM18.836 55.532h-.668v-2.036l7.926-6.77.431.492-7.69 6.578v1.736Zm31.249.117h-.668v-1.77l-7.69-6.67.431-.492 7.927 6.862v2.07ZM25.748 53.17h3.667v.651h-3.667v-.651Z"/><path d="M47.23 55.975H20.332V53.52h2.789v.652h-2.13v1.152h25.57v-1.152H32.037v-.651H47.23v2.454Z"/><path d="M23.119 53.78h-1.521v-2.23h5.856v.652h-5.197v.918h.862v.66Zm22.173.367H32.034v-.651h12.59v-1.219H36.37v-.66h8.923v2.53ZM25.747 53.13h3.667v.65h-3.667v-.65Zm4.326-1.578h3.668v.65h-3.668v-.65Zm2.916-1.628h3.659v.651h-3.66v-.651Z"/><path d="M27.455 52.16h-4.006v-2.238h6.913v.66h-6.245v.918h3.338v.66Zm2.62-.66h3.667v.651h-3.668v-.65Zm14.187.66H36.37v-.66h7.225v-.918h-4.318v-.66h4.985v2.238Zm-14.06-3.857h3.666v.65h-3.667v-.65Z"/><path d="M30.362 50.532h-4.385v-2.229h1.597v.651h-.93v.927h3.718v.651Zm11.907 0h-2.992v-.651h2.333v-.927h-5.121v-.651h5.78v2.229Zm-9.279-.651h3.66v.651h-3.66v-.651Zm-2.788-1.628h3.667v.651h-3.667v-.651Z"/><path d="M42.27 48.913h-5.78v-.66h5.12v-.918H26.645v.918h.929v.66h-1.597v-2.238h16.292v2.238Zm-21.803-3.148H9.102v-2.312h11.365v2.312ZM9.77 45.081h10.04v-1.002H9.768v1.002Zm49.105.684H47.508v-2.312h11.366v2.312Zm-10.707-.684h10.04v-1.002h-10.04v1.002ZM10.361 31.665h.659v6.144h-.66v-6.144Z"/><path d="M13.309 38.677h-2.95v-.86h.66v.21h1.63v-6.362h.66v7.012Zm36.53-9.542h-.667v-2.947H18.827v2.822h-.66v-3.473H49.84v3.598Zm-29.863 9.726h-2.95v-7.513h2.95v7.513Zm-2.29-.66h1.63V32h-1.63V38.2Zm10.098.61h-2.95v-8.424h2.95v8.424Zm-2.29-.66h1.63V31.04h-1.63v7.112Zm17.923.71h-2.949v-8.599h2.95v8.599Zm-2.29-.66h1.631v-7.313h-1.63v7.313Z"/><path d="M43.418 38.86H40.47v-8.598h2.95v8.599Zm-2.29-.659h1.631v-7.313h-1.63v7.313Zm-20.137-6.203H9.101V28.66h11.89V32ZM9.77 31.34h10.563v-2.004H9.77v2.004Z"/><path d="M45.63 30.888H23.145l.339-3.34h21.776l.372 3.34Zm-21.725-.651h20.957l-.203-2.012H24.083l-.178 2.012Zm27.083 8.574h-2.957v-7.338h2.957v7.338Zm-2.29-.66h1.623v-6.027h-1.623v6.027Zm8.95.835h-2.95v-7.513h2.95v7.513Zm-2.29-.651h1.63v-6.211h-1.63v6.21Z"/><path d="M58.671 32.124h-11.89v-3.34h11.89v3.34Zm-11.23-.652h10.563V29.46H47.44v2.012Zm-4.2-5.284H24.836v-5.502H43.24v5.502Zm-17.746-.651h17.078v-4.174H25.495v4.174Z"/><path d="M42.031 21.18H26.195v-4.3h15.836v4.3Zm-15.143-.652h14.518v-2.997H26.888v2.997Z"/><path d="M40.884 17.373h-13.52v-3.757h13.52v3.757Zm-12.853-.676h12.194v-2.421H28.03v2.42Z"/><path d="M40.106 14.276H28.148v-3.34h11.958v3.34Zm-11.29-.66h10.622v-2.062H28.816v2.062Zm-.093-6.862H38.4v.651h-9.676v-.651Z"/><path d="m43.941 9.117-19.774-.209V1.82h19.774v7.297Zm-19.064-.835 18.405.192v-5.97H24.835l.042 5.778Zm-5.991 21.054h-8.527v-3.84h8.527v3.84Zm-7.901-.66h7.2v-2.504h-7.2v2.505Zm46.172.66h-7.951v-3.84h7.951v3.84Zm-7.3-.66h6.624v-2.504h-6.625v2.505Z"/><path d="M24.169 0h.659v2.146h-.66V0ZM43.24.71h.66v2.145h-.66V.71ZM24.506 10.903h2.172v.651h-2.172v-.651Zm17.079 0h2.171v.651h-2.171v-.651Zm-17.577 2.78h2.172v.65h-2.172v-.65Zm18.075 0h2.172v.65h-2.172v-.65Zm-19.241 3.272h2.172v.651h-2.172v-.65Zm20.399 0h2.172v.651H43.24v-.65ZM27.904 3.907h.659V5.71h-.66V3.907Zm1.656 0h.659V5.71h-.66V3.907Zm1.665 0h.659V5.71h-.66V3.907Zm1.656 0h.659V5.71h-.66V3.907Zm1.656 0h.66V5.71h-.66V3.907Zm1.656 0h.66V5.71h-.66V3.907Zm1.657 0h.659V5.71h-.66V3.907Zm1.656 0h.659V5.71h-.66V3.907ZM27.904 40.406h.659v1.803h-.66v-1.803Zm1.656 0h.659v1.803h-.66v-1.803Zm1.665 0h.659v1.803h-.66v-1.803Zm1.656 0h.659v1.803h-.66v-1.803Zm1.656 0h.66v1.803h-.66v-1.803Zm1.656 0h.66v1.803h-.66v-1.803Zm1.657 0h.659v1.803h-.66v-1.803Zm1.656 0h.659v1.803h-.66v-1.803Zm12.422 0h.659v1.803h-.66v-1.803Zm1.656 0h.66v1.803h-.66v-1.803Zm1.656 0h.66v1.803h-.66v-1.803Zm-43.24 0h.66v1.803H12v-1.803Zm1.656 0h.66v1.803h-.66v-1.803Zm1.656 0h.66v1.803h-.66v-1.803ZM18.238 25.59l5.947-17.11.623.212-5.946 17.11-.624-.211ZM43.258 8.89l.622-.215 5.964 16.91-.622.214-5.964-16.91ZM42.252 48.612h-.668V47.21H21.6v-4.09h5.07v3.439h14.94v-3.44h4.572v4.09h-3.93v1.403Zm0-2.053h3.236v-2.78h-3.236v2.78Zm-20.02 0h3.753v-2.78h-3.727l-.025 2.78ZM0 55.349h68v.652H0v-.652Zm37.85-16.554h-6.956v-6.236h6.955v6.236Zm-6.296-.66h5.628v-4.908h-5.628v4.908Zm4.783-11.946h-4.623V22.59h4.623v3.598Zm-3.972-.651h3.312v-2.296h-3.295l-.017 2.296Z"/><path d="m26.179 43.67-9.313-4.634-6.354-.083.008-.651 6.507.083 9.456 4.692-.304.593Zm-3.313.851h.66v1.219h-.66v-1.219Zm1.656 0h.66v1.219h-.66v-1.219Zm18.22 0h.659v1.219h-.66v-1.219Zm1.656 0h.659v1.219h-.66v-1.219Z"/></g><defs><clipPath id="a"><path fill="#fff" d="M0 0h68v56H0z"/></clipPath></defs></svg>