<svg width="70" height="53" fill="none" xmlns="http://www.w3.org/2000/svg"><path d="M41.692 4.236H26.828v-2.49L29.03.74c-.105-.12 10.493 0 10.493 0l2.17.843v2.652Z" fill="#fff"/><path d="M0 51.744h69.789v.723H0v-.723Z" fill="#B8B7B7"/><path d="M51.533 52.5H16.984V18.369h34.55v34.13Zm-33.858-.731h33.127V19.092H17.675v32.677Z" fill="#B8B7B7"/><path d="M51.533 34.084h-7.866v-.723h7.135v-.94h-7.135v-.723h7.866v2.386Zm-26.69 0h-7.859v-2.386h7.858v.723h-7.127v.94h7.127v.723Z" fill="#B8B7B7"/><path d="M44.029 52.5H24.48V25.777H44.03V52.5Zm-18.817-.723h18.094V26.508H25.212v25.27Z" fill="#B8B7B7"/><path d="M41.457 52.5H27.059V35.893a7.072 7.072 0 0 1 .37-2.282c.201-.63.494-1.229.867-1.776A7.23 7.23 0 0 1 39.368 30.8c.313.32.597.667.851 1.036a7.126 7.126 0 0 1 1.238 4.034V52.5Zm-13.66-.723h12.929V35.893c0-.696-.112-1.388-.33-2.05a6.26 6.26 0 0 0-.803-1.606 6.429 6.429 0 0 0-10.719 0 6.178 6.178 0 0 0-.803 1.607 6.332 6.332 0 0 0-.337 2.049l.064 15.884Zm25.816-32.685h-38.71v-4.057h38.71v4.057Zm-37.987-.723h37.256v-2.603H15.626v2.603Zm5.551 8.557a2.53 2.53 0 1 1 2.531-2.53 2.54 2.54 0 0 1-2.53 2.53Zm0-4.33a1.808 1.808 0 1 0 1.8 1.8 1.8 1.8 0 0 0-1.8-1.8Zm26.49 4.33a2.53 2.53 0 1 1 0-5.061 2.53 2.53 0 0 1 0 5.061Zm0-4.33a1.808 1.808 0 1 0 1.8 1.8 1.8 1.8 0 0 0-1.8-1.8Z" fill="#B8B7B7"/><path d="M51.613 15.766H16.87V9.04h34.71l.032 6.725Zm-33.987-.731h33.256V9.764H17.626v5.27Z" fill="#B8B7B7"/><path d="M47.614 9.763H20.89v-5.72h26.723v5.72ZM21.63 9.04h25.26V4.766H21.63V9.04Z" fill="#B8B7B7"/><path d="M42.055 4.782H26.468V1.697l2.41-1.109C29.224.5 30.316.5 34.302.5l5.23.056h.064l2.459.956v3.27ZM27.191 4.06h14.133V2.01l-1.864-.707c-3.857-.048-9.642-.088-10.3 0l-1.969.86v1.896Zm-7.922 7.978h.723v1.27h-.723v-1.27Zm1.816 0h.723v1.27h-.723v-1.27Zm1.816 0h.723v1.27H22.9v-1.27Zm1.815 0h.723v1.27h-.723v-1.27Zm1.816 0h.723v1.27h-.723v-1.27Zm-3.085-5.632h.723v1.27h-.723v-1.27Zm1.816 0h.723v1.27h-.723v-1.27Zm1.815 0h.724v1.27h-.724v-1.27Zm1.824 0h.723v1.27h-.723v-1.27Zm1.816 0h.723v1.27h-.723v-1.27ZM19.012 37.668h.723v14.446h-.723V37.668Zm29.808 0h.723v14.446h-.723V37.668ZM22.45 20.032h23.63v.723H22.45v-.723Z" fill="#B8B7B7"/></svg>