<svg width="67" height="55" fill="none" xmlns="http://www.w3.org/2000/svg"><g clip-path="url(#a)" fill="#B8B7B7"><path d="M20.836 33.974h.571v3.161h-.571v-3.161Z"/><path d="M49.012 54.862H20.844V20.01c0-.077.03-.152.085-.207a.288.288 0 0 1 .41 0c.054.055.084.13.084.207v34.275h27.018V20.027a.288.288 0 0 1 .4-.27.28.28 0 0 1 .152.158c.014.036.02.074.019.112v34.835Z"/><path d="m21.296 20.262-.37-.463.209-.162.12-.09a80.671 80.671 0 0 1 2.753-1.934C35.646 9.753 41.851 9.2 42.31 9.168h.508l.088 4.462 3.71-.146-.08-9.753V0h.58v3.65l.08 10.338-4.83.187-.112-4.422a17.86 17.86 0 0 0-1.98.431c-.16 0-.314.081-.499.138-1.048.297-2.08.65-3.09 1.057h-.073l-.233.09a44.38 44.38 0 0 0-3.099 1.389c-.2.09-.378.179-.539.268a60.826 60.826 0 0 0-3.54 1.91c-.403.22-.806.447-1.087.634-.894.537-1.82 1.114-2.753 1.715h-.04l-.523.35-.21.138a390.103 390.103 0 0 0-3.291 2.39Z"/><path d="M49.012 20.32h-.571V.576h-1.9V0h2.471v20.32Zm-28.474-2.317-.37-.44a63.096 63.096 0 0 1 15.597-9.435l.217.536a63.15 63.15 0 0 0-15.444 9.339Z"/><path d="M42.148 15.873h7.694v.577h-7.694v-.577Zm.193 2.235h7.694v.577H42.34v-.577ZM23.017 13.8h.572v6.405h-.572V13.8Zm3.84-1.958h.57v6.404h-.57v-6.404Zm3.887-1.984h.571v6.405h-.572V9.858Zm-8.04 19.604h25.101v.577H22.703v-.577Zm0-3.486h25.101v.577H22.703v-.577Zm0-4.097h25.101v.577H22.703v-.577ZM0 54.423h67v.576H0v-.577Z"/><path d="M31.476 54.862h-.571V49.8a.294.294 0 0 1 .29-.293H35v-4.064a.294.294 0 0 1 .088-.201.288.288 0 0 1 .202-.083h4.145v-4.633a.28.28 0 0 1 .282-.285h4.152v-4.063c0-.078.03-.152.085-.207a.288.288 0 0 1 .205-.086h4.708v.577H44.44v4.064a.286.286 0 0 1-.281.293h-4.145v4.624a.294.294 0 0 1-.29.293H35.58v4.064a.294.294 0 0 1-.087.202.288.288 0 0 1-.202.082h-3.815v4.78Zm-6.921-34.705h.571V51.53h-.571V20.157Zm2.865 0h.571v28.918h-.571V20.157Zm2.857 0h.571v26.31h-.571v-26.31Zm2.865 0h.571v25.01h-.571v-25.01Z"/><path d="M35.001 53.553h-2.575v-2.885H35v2.885Zm-2.004-.577h1.433v-1.731h-1.433v1.73Zm5.73.577h-2.575v-2.885h2.575v2.885Zm-2.004-.577h1.433v-1.731h-1.433v1.73Zm5.867.577h-2.575v-2.885h2.575v2.885Zm-2.004-.577h1.433v-1.731h-1.432v1.73Zm6.157.577h-2.575v-2.885h2.575v2.885Zm-2.004-.577h1.433v-1.731h-1.433v1.73Zm-5.867-3.617h-2.575v-2.885h2.575v2.885Zm-2.004-.593h1.433V47.05h-1.433v1.715Zm5.722.593h-2.575v-2.885h2.575v2.885Zm-2.004-.593h1.433V47.05h-1.432v1.715Zm6.157.593h-2.575v-2.885h2.575v2.885Zm-2.004-.593h1.433V47.05h-1.433v1.715Zm-1.432-3.885H40.73v-2.894h2.576v2.894Zm-2.004-.577h1.432v-1.74h-1.432v1.74Zm5.44.577h-2.575v-2.894h2.575v2.894Zm-2.004-.577h1.433v-1.74h-1.433v1.74Z"/><path d="M56.836 55H11.598V44.88h9.528v.578H12.17v8.965h44.095v-8.965h-7.533v-.577h8.105V55Z"/><path d="M55.53 48.205h-6.784a.289.289 0 0 1-.241-.288.294.294 0 0 1 .241-.289h6.785a.287.287 0 0 1 .31.166.296.296 0 0 1-.075.346.29.29 0 0 1-.235.065ZM43.733 31.706h.572V33.3h-.572v-1.593Zm1.425 0h.571V33.3h-.571v-1.593Zm1.432 0h.572V33.3h-.572v-1.593Zm-7.154 0h.571V33.3h-.571v-1.593Zm1.432 0h.572V33.3h-.572v-1.593Zm1.433 0h.571V33.3H42.3v-1.593Zm1.432-8.388h.572v1.593h-.572v-1.593Zm1.425 0h.571v1.593h-.571v-1.593Zm1.432 0h.572v1.593h-.572v-1.593Zm-7.154 0h.571v1.593h-.571v-1.593Zm1.432 0h.572v1.593h-.572v-1.593Zm1.433 0h.571v1.593H42.3v-1.593ZM17.528 47.466h.571v1.593h-.571v-1.593Zm1.432 0h.572v1.593h-.572v-1.593Zm-5.722 0h.572v1.593h-.572v-1.593Zm1.433 0h.571v1.593h-.571v-1.593Zm1.424 0h.572v1.593h-.572v-1.593Z"/></g><defs><clipPath id="a"><path fill="#fff" d="M0 0h67v55H0z"/></clipPath></defs></svg>