<svg width="61" height="52" fill="none" xmlns="http://www.w3.org/2000/svg"><g clip-path="url(#a)" fill="#B8B7B7"><path d="M19.387 12.61H11.37V8.03h8.016v4.58Zm-7.39-.617h6.763V8.646h-6.763v3.345Zm24.83 35.573h.626v3.985h-.627v-3.985Zm-13.84-3.89h.627v7.875h-.626v-7.875Zm-5.002-3.919h.626v11.456h-.626V39.757Zm23.092-.345h.626v11.86h-.626v-11.86ZM26.47 43.713c-.26-.013-.509-.1-.718-.252a1.311 1.311 0 0 1-.46-.6 1.29 1.29 0 0 1 .33-1.403 1.334 1.334 0 0 1 1.437-.255c.239.1.442.268.585.481.143.214.22.464.22.72-.01.356-.162.693-.423.938-.261.246-.61.379-.971.371Zm0-2a.693.693 0 0 0-.637.851.705.705 0 0 0 1.382-.16.73.73 0 0 0-.233-.491.752.752 0 0 0-.512-.2Zm7.493 2a1.338 1.338 0 0 1-.72-.248 1.31 1.31 0 0 1-.462-.6 1.292 1.292 0 0 1 .324-1.405 1.334 1.334 0 0 1 1.439-.258c.239.1.443.268.586.482.143.213.22.464.22.72-.01.355-.16.69-.42.936-.26.245-.607.38-.967.373Zm0-2a.708.708 0 0 0-.376.137.692.692 0 0 0-.26.714.704.704 0 0 0 1.382-.16.73.73 0 0 0-.234-.491.752.752 0 0 0-.512-.2Z"/><path d="M.5 51.383h60V52H.5v-.617Z"/><path d="M46.73 51.897H12.29V37.5h34.44v14.397Zm-33.844-.618h33.247V38.14H12.915l-.03 13.14Z"/><path d="M37.395 51.912H22.982v-12.5h14.413v12.5Zm-13.78-.618h13.153v-11.28H23.616v11.28Zm24.121-13.132H11.074v-7.72h36.662v7.72Zm-36.05-.618H47.11V31.06H11.686v6.485Z"/><path d="M34.129 52h-7.881v-5.676a1.534 1.534 0 0 1 .196-.762c.13-.233.32-.429.55-.57l3.243-2 3.154 2c.227.141.415.336.545.568.13.231.2.492.2.756L34.13 52Zm-7.255-.617h6.621v-5.06a.945.945 0 0 0-.44-.8l-2.826-1.788-2.885 1.765a.962.962 0 0 0-.455.81l-.015 5.073Zm-7.188-13.221h-8.612v-7.72h8.612v7.72Zm-8-.618h7.359V31.06h-7.36v6.485Zm36.05.618h-8.619v-7.72h8.62v7.72Zm-7.993-.618h7.367V31.06h-7.367v6.485Z"/><path d="M18.513 31.058h-6.27v-9.735h6.27v9.735Zm-5.645-.617h5.019v-8.5h-5.019v8.5Zm33.688.617h-6.264v-9.735h6.264v9.735Zm-5.637-.617h5.01v-8.5h-5.01v8.5Z"/><path d="M19.372 21.942h-7.985v-4.64h7.985v4.64Zm-7.359-.618h6.71v-3.397h-6.71v3.397Zm35.41.617h-7.994v-4.64h7.993v4.64Zm-7.367-.617h6.71v-3.397h-6.71v3.397Zm.783 9.735H17.963v-6.617H40.84v6.617Zm-22.25-.617h21.623V25H18.59v5.442Z"/><path d="M17.65 17.926h-4.54v-5.882h4.54v5.882Zm-3.914-.625h3.288V12.67h-3.288V17.3Zm31.964.625h-4.548v-5.882H45.7v5.882Zm-3.922-.625h3.289V12.67h-3.289V17.3Zm-15.277 7.574H21.96v-5.883h4.54v5.883Zm-3.915-.61h3.266v-4.633h-3.266v4.633Zm14.256.61h-4.54v-5.883h4.54v5.883Zm-3.914-.61h3.288v-4.633h-3.288v4.633Z"/><path d="M45.699 17.927h-4.548v-5.883h4.548v5.883Zm-3.922-.625h3.288v-4.633h-3.288v4.633ZM18.484 8.655a.324.324 0 0 1-.274-.173.312.312 0 0 1 .02-.32c.454-.602.7-1.331.701-2.08 0-1.471-2.438-3.229-3.556-3.868-1.119.64-3.55 2.36-3.55 3.867-.002.75.245 1.481.701 2.081a.307.307 0 0 1-.067.434.318.318 0 0 1-.44-.066 4.058 4.058 0 0 1-.82-2.449c0-2.264 3.863-4.412 4.027-4.5a.324.324 0 0 1 .305 0c.164.096 4.027 2.206 4.027 4.5a4.058 4.058 0 0 1-.82 2.449.311.311 0 0 1-.254.125Z"/><path d="M18.485 8.654h-6.21a.315.315 0 0 1-.222-.09.306.306 0 0 1 0-.437.315.315 0 0 1 .221-.09h6.211c.083 0 .163.032.221.09a.306.306 0 0 1 0 .437.315.315 0 0 1-.22.09Zm-3.072-6.492a.315.315 0 0 1-.221-.09.307.307 0 0 1-.092-.22V.31c0-.082.033-.16.092-.219a.315.315 0 0 1 .443 0 .307.307 0 0 1 .091.219v1.544c0 .082-.033.16-.091.218a.315.315 0 0 1-.222.09Zm31.115 6.492a.323.323 0 0 1-.307-.267.298.298 0 0 1 .06-.225 3.46 3.46 0 0 0 .694-2.081c0-1.47-2.43-3.228-3.549-3.868-1.118.64-3.55 2.36-3.55 3.868a3.46 3.46 0 0 0 .694 2.08.3.3 0 0 1 .016.34.324.324 0 0 1-.523.028 4.058 4.058 0 0 1-.79-2.448c0-2.265 3.862-4.412 4.026-4.5a.325.325 0 0 1 .306 0c.164.095 4.026 2.206 4.026 4.5a4.058 4.058 0 0 1-.82 2.448.312.312 0 0 1-.283.125Z"/><path d="M46.525 8.654h-6.21a.315.315 0 0 1-.222-.09.306.306 0 0 1 0-.437.315.315 0 0 1 .221-.09h6.211c.084 0 .163.032.222.09a.306.306 0 0 1 0 .437.315.315 0 0 1-.222.09Zm-3.101-6.492a.317.317 0 0 1-.29-.19.306.306 0 0 1-.023-.12V.31c0-.082.033-.16.091-.219a.315.315 0 0 1 .443 0 .307.307 0 0 1 .092.219v1.544c0 .082-.033.16-.092.218a.316.316 0 0 1-.221.09ZM27.4 19.492h-6.337v-3.676H27.4v3.677Zm-5.711-.617h5.085v-2.448h-5.085v2.448Z"/><path d="M26.86 16.375a.285.285 0 0 1-.187-.066.31.31 0 0 1-.12-.325.307.307 0 0 1 .053-.11 2.842 2.842 0 0 0 .581-1.727c0-1.243-2.005-2.662-2.982-3.213-.947.551-2.983 1.978-2.983 3.213a2.835 2.835 0 0 0 .575 1.728.308.308 0 0 1-.17.487.319.319 0 0 1-.33-.112 3.473 3.473 0 0 1-.664-2.103c0-1.941 3.296-3.765 3.43-3.838a.325.325 0 0 1 .299-.015c.141.074 3.43 1.897 3.43 3.838-.001.757-.247 1.494-.702 2.103a.326.326 0 0 1-.23.14Z"/><path d="M26.858 16.375h-5.22a.326.326 0 0 1-.257-.073.317.317 0 0 1-.111-.24.313.313 0 0 1 .111-.24.323.323 0 0 1 .258-.072h5.22a.313.313 0 0 1 .195.518.322.322 0 0 1-.196.107Zm-2.624-5.493a.311.311 0 0 1-.224-.088.302.302 0 0 1-.09-.22V9.271c0-.082.033-.16.092-.219a.315.315 0 0 1 .443 0 .307.307 0 0 1 .092.219v1.301c0 .082-.033.16-.092.219a.315.315 0 0 1-.221.09Zm13.548 8.61h-6.338v-3.676h6.338v3.676Zm-5.712-.617h5.04v-2.449h-5.077l.037 2.449Z"/><path d="M37.199 16.375a.286.286 0 0 1-.186-.066.313.313 0 0 1-.126-.203.305.305 0 0 1 .058-.231c.38-.498.584-1.105.582-1.728 0-1.243-2.006-2.662-2.983-3.213-.954.551-2.982 1.978-2.982 3.213-.002.623.203 1.23.582 1.728a.307.307 0 0 1-.067.434.306.306 0 0 1-.343.02.303.303 0 0 1-.09-.08 3.477 3.477 0 0 1-.746-2.102c0-1.941 3.289-3.765 3.43-3.838a.324.324 0 0 1 .306 0c.142.073 3.43 1.897 3.43 3.838 0 .757-.246 1.493-.701 2.103a.327.327 0 0 1-.164.125Z"/><path d="M37.198 16.375h-5.22a.322.322 0 0 1-.194-.107.313.313 0 0 1 0-.412.322.322 0 0 1 .194-.106h5.22a.313.313 0 0 1 .195.518.322.322 0 0 1-.195.107Zm-2.625-5.493a.31.31 0 0 1-.224-.088.301.301 0 0 1-.089-.22V9.271c0-.082.033-.16.092-.219a.315.315 0 0 1 .51.1.304.304 0 0 1 .024.119v1.301a.304.304 0 0 1-.091.219.314.314 0 0 1-.222.09Zm-7.173 8.61h-6.337v-3.676H27.4v3.676Zm-5.711-.617h5.085v-2.449h-5.085v2.449Z"/><path d="M26.86 16.375a.285.285 0 0 1-.187-.066.31.31 0 0 1-.12-.325.307.307 0 0 1 .053-.11 2.842 2.842 0 0 0 .581-1.727c0-1.243-2.005-2.662-2.982-3.213-.947.551-2.983 1.978-2.983 3.213a2.835 2.835 0 0 0 .575 1.728.308.308 0 0 1-.17.487.319.319 0 0 1-.33-.112 3.473 3.473 0 0 1-.664-2.103c0-1.941 3.296-3.765 3.43-3.838a.325.325 0 0 1 .299-.015c.141.074 3.43 1.897 3.43 3.838-.001.757-.247 1.494-.702 2.103a.326.326 0 0 1-.23.14Z"/><path d="M26.86 16.375h-5.22a.324.324 0 0 1-.34-.18.313.313 0 0 1 .082-.373.322.322 0 0 1 .258-.072h5.22c.075.011.144.05.194.107a.313.313 0 0 1 0 .411.321.321 0 0 1-.195.107Zm-2.625-5.493a.31.31 0 0 1-.292-.19.297.297 0 0 1-.021-.119V9.272c0-.082.032-.16.091-.218a.316.316 0 0 1 .443 0 .307.307 0 0 1 .092.218v1.301c0 .082-.033.16-.092.219a.315.315 0 0 1-.221.09Zm23.24 1.72h-8.06V8.016h8.06v4.588Zm-7.456-.617h6.77V8.632h-6.77v3.353Zm-18.61 14.28h15.978v.617H21.41v-.617Zm0 6.338h15.978v.617H21.41v-.617Zm2.2-4.949h.626v1.081h-.627v-1.08Zm1.565 0h.627v1.081h-.627v-1.08Zm1.566 0h.626v1.081h-.626v-1.08Zm1.566 0h.626v1.081h-.626v-1.08Zm1.566 0h.626v1.081h-.627v-1.08Zm1.565 0h.627v1.081h-.627v-1.08Zm1.566 0h.627v1.081h-.627v-1.08Zm1.573 0h.627v1.081h-.627v-1.08Zm-13.652 6.581h.626v1.61h-.626v-1.61Zm2.334 0h.626v1.61h-.626v-1.61Zm2.334 0h.626v1.61h-.626v-1.61Zm2.334 0h.626v1.61h-.627v-1.61Zm2.333 0h.627v1.61h-.627v-1.61Zm2.327 0h.626v1.61h-.626v-1.61Zm2.333 0h.627v1.61h-.627v-1.61Zm2.334 0h.627v1.61h-.627v-1.61Zm-23.517-11.83h.627v8.448h-.627v-8.449Zm.023 15.316h.626v2.911h-.626v-2.911ZM44.44 22.404h.626v8.449h-.626v-8.449Zm.03 15.317h.626v2.911h-.626v-2.911ZM12.715 18.699h.626v1.698h-.626v-1.698Zm1.566 0h.626v1.698h-.626v-1.698Zm1.565 0h.627v1.698h-.627v-1.698Zm1.574 0h.626v1.698h-.626v-1.698Zm23.345 0h.626v1.698h-.626v-1.698Zm1.566 0h.626v1.698h-.626v-1.698Zm1.566 0h.626v1.698h-.626v-1.698Zm1.566 0h.626v1.698h-.627v-1.698ZM12.715 33.374h.626v1.699h-.626v-1.7Zm1.566 0h.626v1.699h-.626v-1.7Zm1.565 0h.627v1.699h-.627v-1.7Zm1.574 0h.626v1.699h-.626v-1.7Zm23.345 0h.626v1.699h-.626v-1.7Zm1.566 0h.626v1.699h-.626v-1.7Zm1.566 0h.626v1.699h-.626v-1.7Zm1.566 0h.626v1.699h-.627v-1.7Z"/><path d="M40.765 9.427h.626v1.698h-.626V9.427Zm1.566 0h.626v1.698h-.626V9.427Zm1.566 0h.626v1.698h-.626V9.427Zm1.566 0h.626v1.698h-.627V9.427ZM32.69 16.684h.626v1.699h-.626v-1.699Zm1.573 0h.627v1.699h-.627v-1.699Zm1.566 0h.626v1.699h-.626v-1.699Zm-13.473 0h.626v1.699h-.626v-1.699Zm1.566 0h.626v1.699h-.626v-1.699Zm1.565 0h.627v1.699h-.627v-1.699ZM12.715 9.427h.626v1.698h-.626V9.427Zm1.566 0h.626v1.698h-.626V9.427Zm1.565 0h.627v1.698h-.627V9.427Zm1.574 0h.626v1.698h-.626V9.427Z"/></g><defs><clipPath id="a"><path fill="#fff" transform="translate(0.5)" d="M0 0h60v52H0z"/></clipPath></defs></svg>