<svg width="69" height="52" fill="none" xmlns="http://www.w3.org/2000/svg"><g clip-path="url(#a)" fill="#B8B7B7"><path d="M20.094 25.38H7.255v-6.522h12.84v.445h-.361v.264H7.96v5.113h11.422v-3.616h.712v4.317ZM19.734 52H4.594V32.082h15.5V47.77h-.712V32.784H5.306V51.29h14.428v.71Zm4.963-30.936h.705v4.052h-.705v-4.052Zm19.478 0h.705v4.052h-.705v-4.052ZM44.88 52H24.697V26.877h.705v24.414h18.773V26.877h.705V52Zm-.353-32.432H25.05v-.265h-.353v-.445H44.88v.445h-.353v.264Zm17.795 5.813H49.483v-4.317h.712v3.616h11.422v-5.113H49.843v-.264h-.36v-.445h12.839v6.523ZM64.804 52h-14.96v-.71H64.09V32.784H50.195v14.985h-.712V32.082h15.32V52Z"/><path d="M25.05 51.291h19.478v.701H25.05v-.701Z"/><path d="M.789 51.291h68v.702h-68v-.702ZM25.402 12.96h-.705V8.105h-4.603v4.854h-.712V7.403h6.02v5.556Zm-6.02 8.105h.704v4.052h-.704v-4.052Zm5.315 0h.705v4.052h-.705v-4.052Z"/><path d="M25.403 52h-5.668v-.709h4.963V26.877h.705V52Zm-6.02-25.123h.704v20.884h-.705V26.877Zm0-12.156h.704v4.582h-.705V14.72Zm5.315 0h.705v4.582h-.705V14.72Zm25.498-1.762h-.712V8.105H44.88v4.854h-.704V7.403h6.02v5.556Zm-6.02 8.105h.704v4.052h-.704v-4.052Zm5.308 0h.704v4.052h-.704v-4.052Zm0 5.813h.704v20.884h-.704V26.877ZM49.844 52h-5.668V26.877h.704v24.414h4.964v.71Zm-5.668-37.28h.704v4.583h-.704V14.72Zm5.308 0h.704v4.583h-.704V14.72Z"/><path d="M20.094 29.611H4.687V24.68h15.407v.436h-.36v.265H5.392v3.53h13.99v-2.034h.712v2.735Zm24.785 0H24.698v-2.735h.705v2.034h18.773v-2.034h.705v2.735Zm-.352-4.231H25.05v-.265h-.352v-.436H44.88v.436h-.353v.265Zm22.492 7.403H49.483v-3.896h17.536v3.896Zm-16.824-.701h16.112v-2.47H50.195v2.47Z"/><path d="M64.89 29.612H49.483v-2.735h.713v2.034h13.99v-3.53H49.843v-.265h-.36v-.437H64.89v4.933Zm-44.796 3.171H2.558v-3.896h17.536v3.896Zm-16.823-.7h16.111v-2.471H3.271v2.47ZM25.402 52H17.08v-4.582h8.322V52Zm-7.617-.71h6.913v-3.17h-6.913v3.17Zm34.712.71h-8.322v-4.582h8.322V52Zm-7.617-.71h6.905v-3.17H44.88v3.17Zm7.703-36.22H16.994V12.6h35.59v2.47ZM17.7 14.363h34.18V13.31h-34.18v1.052Zm34.884 7.052H16.994v-2.462h35.59v2.462ZM17.7 20.713h34.18v-1.06h-34.18v1.06Z"/><path d="M52.585 27.274h-35.59v-2.51h35.59v2.51Zm-34.885-.78h34.18v-1.02H17.7v1.02ZM27 8.104h-9.214V5.197h9.215v2.907ZM18.5 7.403h7.828V5.906H18.5v1.497Zm33.287.7H42.58V5.198h9.206v2.907Zm-8.494-.7h7.79V5.906h-7.79v1.497Z"/><path d="M25.49 5.907h-6.373v-.88c0-.842.335-1.649.933-2.244a3.194 3.194 0 0 1 4.506 0c.598.595.933 1.402.933 2.243v.88Zm-5.66-.71h4.955v-.17a2.46 2.46 0 0 0-.675-1.837 2.481 2.481 0 0 0-1.803-.773 2.492 2.492 0 0 0-1.803.773 2.468 2.468 0 0 0-.675 1.836v.172Zm30.539.71h-6.373v-.88c0-.842.336-1.649.933-2.244a3.194 3.194 0 0 1 4.507 0c.597.595.933 1.402.933 2.243v.88Zm-5.66-.71h4.955v-.17a2.458 2.458 0 0 0-.674-1.837 2.482 2.482 0 0 0-1.803-.773 2.491 2.491 0 0 0-1.804.773 2.468 2.468 0 0 0-.674 1.836v.172Z"/><path d="M21.95 0h.705v2.112h-.704V0Zm24.88 0h.705v2.112h-.705V0ZM15.578 51.907H9.73v-8.19a2.902 2.902 0 0 1 .8-2.158 2.926 2.926 0 0 1 2.124-.908 2.94 2.94 0 0 1 2.123.908 2.912 2.912 0 0 1 .801 2.158v8.19Zm-5.136-.702h4.44v-7.488a2.197 2.197 0 0 0-.6-1.644 2.214 2.214 0 0 0-1.612-.693 2.224 2.224 0 0 0-1.613.693 2.205 2.205 0 0 0-.599 1.644l-.016 7.488Zm49.76.702h-5.849v-8.19a2.902 2.902 0 0 1 .801-2.158 2.928 2.928 0 0 1 2.123-.908 2.938 2.938 0 0 1 2.124.908 2.91 2.91 0 0 1 .8 2.158v8.19Zm-5.136-.702h4.439v-7.488a2.196 2.196 0 0 0-.6-1.644 2.215 2.215 0 0 0-1.612-.693 2.224 2.224 0 0 0-1.612.693 2.204 2.204 0 0 0-.6 1.644l-.015 7.488Zm-13.23.444h-.705V40.171a3.334 3.334 0 0 0-.737-2.073 3.36 3.36 0 0 0-1.87-1.169l-.29-.062v-.374c0-.914-.364-1.79-1.013-2.436a3.469 3.469 0 0 0-4.894 0 3.437 3.437 0 0 0-1.013 2.436v.374l-.29.062a3.361 3.361 0 0 0-1.87 1.17 3.334 3.334 0 0 0-.737 2.072v11.478h-.705V40.171a4.047 4.047 0 0 1 .806-2.399 4.079 4.079 0 0 1 2.075-1.459 4.146 4.146 0 0 1 1.306-2.77 4.183 4.183 0 0 1 5.718 0 4.146 4.146 0 0 1 1.306 2.77c.83.254 1.558.765 2.076 1.46.518.693.8 1.533.805 2.398l.031 11.478Z"/><path d="M39.797 51.736H29.753v-10.49c.003-.61.197-1.204.557-1.7.36-.494.866-.864 1.447-1.058a2.995 2.995 0 0 1 .953-1.98 3.022 3.022 0 0 1 4.106 0c.558.516.899 1.224.954 1.98a2.936 2.936 0 0 1 1.447 1.059c.36.495.554 1.089.557 1.7l.023 10.489Zm-9.316-.71h8.612v-9.78a2.214 2.214 0 0 0-.49-1.374 2.232 2.232 0 0 0-1.24-.776l-.298-.063v-.311c0-.608-.242-1.19-.674-1.62a2.307 2.307 0 0 0-3.255 0 2.286 2.286 0 0 0-.674 1.62v.311l-.298.063c-.49.112-.926.386-1.24.776-.314.39-.487.875-.49 1.375l.047 9.78Zm-4.016-28.638h.705v1.232h-.705v-1.232Zm1.77 0h.704v1.232h-.705v-1.232Zm1.769 0h.704v1.232h-.704v-1.232Zm1.769 0h.704v1.232h-.704v-1.232Zm1.777 0h.705v1.232h-.705v-1.232Zm1.77 0h.704v1.232h-.705v-1.232Zm1.769 0h.704v1.232h-.704v-1.232Zm1.769 0h.704v1.232h-.704v-1.232Zm-12.393-6.171h.705v1.231h-.705v-1.231Zm1.77 0h.704v1.231h-.705v-1.231Zm1.769 0h.704v1.231h-.704v-1.231Zm1.769 0h.704v1.231h-.704v-1.231Zm1.777 0h.705v1.231h-.705v-1.231Zm1.77 0h.704v1.231h-.705v-1.231Zm1.769 0h.704v1.231h-.704v-1.231Zm1.769 0h.704v1.231h-.704v-1.231Zm-28.512 5.727h.704v1.232h-.704v-1.232Zm1.777 0h.704v1.232h-.704v-1.232Zm1.77 0h.704v1.232h-.705v-1.232Zm1.768 0h.705v1.232h-.705v-1.232Zm1.77 0h.704v1.232h-.704v-1.232Zm34.884 0h.705v1.232h-.705v-1.232Zm1.77 0h.704v1.232h-.704v-1.232Zm1.777 0h.704v1.232h-.704v-1.232Zm1.769 0h.705v1.232h-.705v-1.232Zm1.77 0h.704v1.232H59.4v-1.232ZM7.252 36.05h.705v15.515h-.705V36.049Zm54.449 0h.705v15.515h-.705V36.049Z"/></g><defs><clipPath id="a"><path fill="#fff" transform="translate(0.788574)" d="M0 0h68v52H0z"/></clipPath></defs></svg>