<svg width="72" height="55" fill="none" xmlns="http://www.w3.org/2000/svg"><g clip-path="url(#a)" fill="#B8B7B7"><path d="M0 54.323h72V55H0v-.677Zm45.23-41.256H25.526l1.814-3.511a6.494 6.494 0 0 1 2.408-2.605 6.565 6.565 0 0 1 3.428-.963h4.406a6.566 6.566 0 0 1 3.355.9A5.05 5.05 0 0 1 42.47 8.33a26.808 26.808 0 0 1 2.006 3.313l.755 1.425Zm-18.597-.676h17.514l-.257-.446a26.956 26.956 0 0 0-1.95-3.186 4.488 4.488 0 0 0-1.333-1.25 5.895 5.895 0 0 0-3.026-.844h-4.406a5.87 5.87 0 0 0-3.069.857A5.807 5.807 0 0 0 27.95 9.85l-1.316 2.54Z"/><path d="M38.272 6.625h-5.755v-2.54h5.755v2.54ZM33.2 5.948h4.39v-1.17H33.2v1.17Zm-23.028 23.89a.333.333 0 0 1-.153 0 .337.337 0 0 1-.189-.327.332.332 0 0 1 .036-.128l.506-1.011c.413-.981.953-1.904 1.605-2.747a5.702 5.702 0 0 1 1.836-1.394 5.744 5.744 0 0 1 2.242-.557h3.95a5.65 5.65 0 0 1 3.274 1.011.338.338 0 0 1 .135.35.336.336 0 0 1-.275.257.344.344 0 0 1-.253-.058 4.948 4.948 0 0 0-2.866-.9h-3.965c-.68.025-1.35.186-1.966.473a5.045 5.045 0 0 0-1.622 1.2 11.817 11.817 0 0 0-1.5 2.588l-.515 1.02a.35.35 0 0 1-.28.222Zm51.234 0a.338.338 0 0 1-.305-.192l-.899-1.72a15.393 15.393 0 0 0-1.34-2.078 5.05 5.05 0 0 0-3.572-1.505h-3.733c-1.111 0-2.191.37-3.066 1.05a.342.342 0 0 1-.477-.059.336.336 0 0 1 .06-.474 5.648 5.648 0 0 1 3.483-1.194h3.765a5.73 5.73 0 0 1 2.215.454c.7.296 1.334.73 1.863 1.274a16.257 16.257 0 0 1 1.42 2.206l.867 1.72a.34.34 0 0 1-.152.453.363.363 0 0 1-.129.064Zm-15.54 20.544h-1.26v-.311a1.016 1.016 0 0 0-.318-.647 1.032 1.032 0 0 0-.669-.277h-2.954c-.254 0-.499.095-.685.266a.992.992 0 0 0-.318.658v.31h-7.834v-.31a1.008 1.008 0 0 0-.298-.633c-.172-.17-.4-.273-.641-.29h-2.986c-.26.005-.508.11-.69.294a.977.977 0 0 0-.29.629v.31h-1.284V36.296h2.256v.677h-1.606V49.64a1.7 1.7 0 0 1 1.557-1.17h3.018c.355.02.694.15.97.371.277.221.477.523.572.863h6.606a1.693 1.693 0 0 1 1.63-1.235h2.945c.358.008.704.125.992.336.287.211.502.506.613.843V36.972h-1.605v-.677h2.255l.024 14.087Z"/><path d="M30.84 36.295h9.833v.677H30.84v-.677Z"/><path d="M27.547 49.203V34.24h3.21l.378-.048v14.955h-3.21l-.378.056Zm.682-.733h2.272V34.933h-2.272V48.47Zm15.717.677h-3.62V34.24h3.21l.37-.048.04 14.955Zm-2.938-.677h2.263V34.933h-2.263V48.47Z"/><path d="M30.797 34.925H27.89a1.693 1.693 0 0 1-1.083-.452 1.668 1.668 0 0 1-.522-1.045 1.28 1.28 0 0 1 0-.175v-.342h6.253v.342a1.28 1.28 0 0 1 0 .175c-.04.38-.21.734-.482 1.004a1.7 1.7 0 0 1-1.14.493h-.12Zm-3.813-1.337a1 1 0 0 0 .915.66h2.938a1.009 1.009 0 0 0 .915-.66h-4.768Zm11.543-18.73h-5.723v-2.5h5.723v2.5Zm-5.081-.676h4.398v-1.155h-4.366l-.032 1.155ZM11.332 41.24h.682v.422h-.682v-.422Z"/><path d="M22.585 54.849H11.332V41.177h.682v12.995h9.89v-4.443h1.003l-.008-16.03H12.014v4.22h-.682v-4.896h12.249l.008 17.383h-1.003v4.443Zm43.401-13.362h-.682v-1.831a2.624 2.624 0 0 0-.153-.996c-.152-1.043-1.38-1.592-1.388-1.592a2.98 2.98 0 0 0-1.533-.407h-2.408v-.676h2.408a3.658 3.658 0 0 1 1.862.493c.416.182.786.452 1.085.792.298.34.517.741.64 1.175.137.389.203.799.193 1.21l-.024 1.832Zm-.072 10.368h-2.633V43.23h2.633v8.624Zm-1.95-.67h1.268V43.9h-1.268v7.286Z"/><path d="M60.095 38.27h-3.211v-.916H51.37v.916h-3.452v-5.248h12.209v3.608l-.032 1.64Zm-2.553-.677h1.854V33.7H48.6v3.894h2.047v-.916h6.895v.916Z"/><path d="M59.446 36.247h.683v1.688h-.683v-1.688Zm.305 18.673H47.848v-.406h.337v-.27H59.75v.676Zm-8.38-13.337H47.92V37.6h3.451v3.982Zm-2.729-.677h2.007V38.27h-2.047l.04 2.636Z"/><path d="M62.72 41.583h-5.86V37.6h5.86v3.982Zm-5.178-.677h4.495V38.27h-4.495v2.636Zm-13.967-5.98h-2.913a1.693 1.693 0 0 1-1.084-.453 1.668 1.668 0 0 1-.522-1.044 1.28 1.28 0 0 1 0-.175v-.343h6.253v.343a1.28 1.28 0 0 1 0 .175 1.69 1.69 0 0 1-.527 1.039 1.717 1.717 0 0 1-1.078.458h-.129Zm-3.812-1.338a.996.996 0 0 0 .915.66h2.938a.991.991 0 0 0 .682-.294c.104-.105.185-.23.24-.366h-4.775Zm-33.6 8.074H5.48v-1.72c.002-.407.061-.812.177-1.202a3.364 3.364 0 0 1 1.565-2.11 4.14 4.14 0 0 1 2.408-.797h2.055v.67H9.63a3.455 3.455 0 0 0-1.998.644 2.71 2.71 0 0 0-1.26 1.649v.056c-.107.334-.161.684-.161 1.035l-.048 1.775Zm2.055 10.265H5.513V43.23h2.705v8.696Zm-2.023-.677h1.34V43.9h-1.34v7.35Z"/><path d="M14.249 41.583H8.63V37.6h5.619v3.982Zm-4.969-.677h4.295V38.27H9.28v2.636Zm14.272.677h-3.773v-4.07h3.773v4.07Zm-3.09-.677h2.408v-2.684h-2.408v2.684Zm-8.517 14.038H4.633V51.25h7.312v3.694Zm-6.638-.676h5.932v-2.341H5.307v2.34Zm61.429.724h-7.337v-3.67h7.289l.048 3.67Zm-6.606-.676h5.924v-2.318H60.13v2.318Z"/><path d="M20.461 41.583h-6.887v-5.096h6.887v5.096Zm-6.212-.677h5.53v-3.742h-5.53v3.742Zm43.296.677H50.65V36.63h6.895v4.953Zm-6.173-.677h5.53v-3.583h-5.53v3.583Zm-32.22-16.69h-3.419v-2.477h.972v.677h-.29v1.123h2.056v-1.123h-.281v-.677h.963v2.477Z"/><path d="M17.458 22.527a2.803 2.803 0 0 1-.86-.127c-.368-.086-.7-.287-.945-.574a1.752 1.752 0 0 1-.419-1.019c.028-.33.152-.646.357-.907.205-.262.483-.459.8-.566l1.099-1.09 1.148 1.138a1.676 1.676 0 0 1 1.044 1.425 1.777 1.777 0 0 1-.433 1.021c-.25.287-.585.487-.956.572a2.65 2.65 0 0 1-.835.127Zm-1.541-1.696c.034.227.138.437.297.602.16.166.367.278.594.322.415.131.86.131 1.276 0a1.135 1.135 0 0 0 .915-.924.973.973 0 0 0-.401-.716.916.916 0 0 0-.257-.144h-.073l-.802-.796-.747.74h-.088a.99.99 0 0 0-.714.916Zm39.17 3.384h-3.42V21.74h.972v.677h-.289v1.122h2.055v-1.122h-.273v-.677h.955v2.476Z"/><path d="M53.394 22.527a2.715 2.715 0 0 1-.851-.127 1.768 1.768 0 0 1-.948-.572 1.745 1.745 0 0 1-.417-1.02 1.677 1.677 0 0 1 .675-1.22c.142-.11.302-.196.473-.254l1.108-1.09 1.148 1.122c.13.052.25.122.361.207a1.654 1.654 0 0 1 .674 1.218 1.776 1.776 0 0 1-.432 1.021c-.25.287-.585.487-.956.572a2.65 2.65 0 0 1-.835.143Zm-1.541-1.696c.036.226.14.435.3.6.159.165.365.278.59.324.416.13.862.13 1.277 0a1.135 1.135 0 0 0 .915-.924.974.974 0 0 0-.401-.717.916.916 0 0 0-.257-.143h-.072l-.803-.796-.747.74h-.096a.99.99 0 0 0-.33.168 1.02 1.02 0 0 0-.376.748Zm-16.118-8.226c-1.365 0-2.408-.796-2.408-1.847.034-.356.17-.695.392-.977.222-.283.52-.496.86-.616l1.188-1.202 1.26 1.242a1.9 1.9 0 0 1 .794.639c.2.28.32.61.346.954 0 .995-1.068 1.807-2.432 1.807Zm0-3.726-.803.796h-.072a1.261 1.261 0 0 0-.883 1.027c0 .645.803 1.17 1.758 1.17s1.734-.509 1.75-1.154a1.197 1.197 0 0 0-.803-1.003h-.072l-.875-.836Zm-.361-4.229h-.281c-1.228-.127-2.111-.9-2.111-1.847.026-.357.159-.699.38-.982.221-.284.522-.496.864-.61L35.414 0l1.252 1.242c.316.127.59.337.792.608.203.271.326.593.356.93 0 1.058-1.076 1.87-2.44 1.87Zm-.225-.669h.225c.963 0 1.75-.517 1.758-1.162a1.158 1.158 0 0 0-.803-.964h-.072l-.843-.9-.803.797h-.072a1.214 1.214 0 0 0-.883 1.027c0 .605.642 1.107 1.493 1.202Zm-18.823 48.4h6.245v.676h-6.245v-.677Zm32.926.174h6.277v.677h-6.277v-.677Zm-37.212-8.83H4.543v-2.572h7.497v2.572Zm-6.815-.677h6.133v-1.219H5.225v1.219Zm42.719-1.744h.682v13.529h-.682v-13.53Z"/><path d="M23.246 49.752h29.466v.677H23.246v-.677Zm36.2-6.426h.683v8.337h-.682v-8.337Z"/><path d="M66.945 43.725h-7.497v-2.572h7.497v2.572Zm-6.815-.677h6.133V41.83H60.13v1.218Zm3.283-9.476H8.43v-4.388h54.983v4.388ZM9.08 32.895h53.683v-3.042H9.112l-.032 3.042ZM47.905 22.71H23.488l2.11-4.116a8.204 8.204 0 0 1 3.029-3.24 8.293 8.293 0 0 1 4.284-1.204h5.619a8.234 8.234 0 0 1 3.484.797 8.23 8.23 0 0 1 3.844 3.67l2.047 4.093Zm-23.277-.668h22.178L45.2 18.896a7.576 7.576 0 0 0-3.532-3.36 7.531 7.531 0 0 0-3.21-.709H32.91c-1.39.001-2.752.382-3.937 1.101a7.517 7.517 0 0 0-2.781 2.976l-1.565 3.138Z"/><path d="M48.625 26.429H22.73V22.04h9.03v.669h-8.347v3.042h24.53V22.71h-8.685v-.669h9.367v4.388Z"/><path d="M22.73 26.095h.683v3.36h-.683v-3.36Zm25.213 0h.682v3.472h-.682v-3.472Zm-9.416 24.327h-5.619V40.285h5.62v10.137Zm-4.936-.67h4.254v-8.759H33.59v8.76Zm9.8-33.794h4.993v.677h-4.993v-.677Z"/><path d="M27.885 16.635h-5.49v-4.229h26.4v3.623h-.683v-2.946H23.077v2.875h4.808v.677Zm14.328 9.794H28.8v-4.22h13.413v4.22Zm-12.73-.677h12.04v-2.866h-12.04v2.866Z"/><path d="M39.598 22.885h-8.172v-3.384h8.172v3.384Zm-7.49-.677h6.815v-2.03H32.11v2.03Zm-8.829-4.562H10.477v-.343a5.188 5.188 0 0 1 1.542-3.701 5.27 5.27 0 0 1 1.712-1.134 5.304 5.304 0 0 1 2.02-.396h2.214a5.31 5.31 0 0 1 3.206 1.072 5.238 5.238 0 0 1 1.892 2.782l-.659.175a4.562 4.562 0 0 0-1.646-2.425 4.624 4.624 0 0 0-2.793-.935H15.75a4.604 4.604 0 0 0-3.13 1.214 4.532 4.532 0 0 0-1.453 3.006h11.39a4.983 4.983 0 0 0-.088-.605l.666-.144c.085.358.133.724.144 1.091v.343Zm37.437 0h-12.77v-.343a5.45 5.45 0 0 1 .112-1.083l.104-.294a5.205 5.205 0 0 1 1.883-2.798 5.277 5.277 0 0 1 3.214-1.072h2.208c1.399 0 2.741.55 3.731 1.532a5.219 5.219 0 0 1 1.55 3.7l-.032.358Zm-12.04-.677h11.35a4.557 4.557 0 0 0-1.46-3.008 4.628 4.628 0 0 0-3.132-1.22h-2.207a4.592 4.592 0 0 0-2.784.918 4.53 4.53 0 0 0-1.647 2.41v.557h-.12a4.024 4.024 0 0 0-.04.343h.04Z"/><path d="M24.081 20.178h-5.394l-.088-.064a.916.916 0 0 0-.257-.143h-.072l-.803-.796-.747.74h-.088a.992.992 0 0 0-.329.167l-.096.064H9.633v-3.185H24.08v3.217Zm-5.193-.677h4.51v-1.855H10.3V19.5h5.755a1.61 1.61 0 0 1 .378-.183l1.1-1.091 1.147 1.139c.08.038.154.083.225.135h-.016Zm42.678.677h-6.943l-.088-.064a.916.916 0 0 0-.257-.143h-.073l-.802-.796-.747.74h-.096a.99.99 0 0 0-.33.167l-.087.064h-5.05v-3.185h14.449l.024 3.217Zm-6.719-.677h6.045v-1.855H47.776V19.5h4.174c.118-.075.245-.137.377-.183l1.108-1.091 1.148 1.139c.091.038.18.084.264.135Z"/><path d="M11.325 19.923h.683v6.689h-.682v-6.69Zm47.856 0h.682v6.21h-.682v-6.21ZM29.891 51.44h11.752v.677H29.89v-.677Zm-1.107 1.521H42.75v.677H28.784v-.677ZM9.96 30.657h.682v1.37h-.682v-1.37Zm1.71 0h.682v1.37h-.682v-1.37Zm1.701 0h.683v1.37h-.683v-1.37Zm1.702 0h.682v1.37h-.682v-1.37Zm1.702 0h.682v1.37h-.682v-1.37Zm1.701 0h.683v1.37h-.683v-1.37Zm1.71 0h.682v1.37h-.682v-1.37Zm1.702 0h.682v1.37h-.682v-1.37Zm1.701 0h.683v1.37h-.683v-1.37Zm1.702 0h.682v1.37h-.682v-1.37Zm1.702 0h.682v1.37h-.682v-1.37Zm1.71 0h.682v1.37h-.683v-1.37Zm1.701 0h.682v1.37h-.682v-1.37Zm1.702 0h.682v1.37h-.682v-1.37Zm1.701 0h.683v1.37h-.683v-1.37Zm1.702 0h.682v1.37h-.682v-1.37Zm1.71 0h.682v1.37h-.682v-1.37Zm1.702 0h.682v1.37h-.682v-1.37Zm1.701 0h.682v1.37h-.682v-1.37Zm1.702 0h.682v1.37h-.682v-1.37Zm1.701 0h.683v1.37h-.683v-1.37Zm1.71 0h.683v1.37h-.683v-1.37Zm1.702 0h.682v1.37h-.682v-1.37Zm1.701 0h.683v1.37h-.683v-1.37Z"/><path d="M49.14 30.657h.682v1.37h-.682v-1.37Zm1.702 0h.682v1.37h-.682v-1.37Zm1.701 0h.683v1.37h-.683v-1.37Zm1.702 0h.682v1.37h-.682v-1.37Zm1.71 0h.682v1.37h-.682v-1.37Zm1.701 0h.683v1.37h-.683v-1.37Zm1.702 0h.682v1.37h-.682v-1.37Zm1.702 0h.682v1.37h-.682v-1.37ZM30.91 23.634h.682v1.37h-.682v-1.37Zm1.702 0h.682v1.37h-.682v-1.37Zm1.702 0h.682v1.37h-.682v-1.37Zm1.701 0h.683v1.37h-.683v-1.37Zm1.71 0h.682v1.37h-.682v-1.37Zm1.702 0h.682v1.37h-.682v-1.37ZM17.113 49.752h5.113v.677h-5.113v-.677Z"/></g><defs><clipPath id="a"><path fill="#fff" d="M0 0h72v55H0z"/></clipPath></defs></svg>