<svg width="72" height="50" fill="none" xmlns="http://www.w3.org/2000/svg"><g clip-path="url(#a)" fill="#B8B7B7"><path d="M0 48.815h72v.685H0v-.685ZM4.728 31.11h.682v13.213h-.682V31.111Zm42.06 15.39-.177-33.521H65.78v30.086h-.682V13.665H47.302l.168 32.828-.682.008Z"/><path d="M65.097 39.463h.682v4.95h-.682v-4.95Zm-17.635 9.956H22.957v-5.385h24.505v5.385Zm-23.823-.685h23.133V44.75H23.639v3.983Zm1.59-29.37h.593v4.41h-.594v-4.41Zm2.776 0h.594v4.41h-.594v-4.41Zm2.77 0h.594v4.41h-.594v-4.41Zm2.777 0h.594v4.41h-.594v-4.41Zm2.777 0h.594v4.41h-.594v-4.41Zm2.77 0h.593v4.41h-.594v-4.41Zm-32.1-.032h.594v4.41H7v-4.41Zm2.77 0h.594v4.41h-.594v-4.41Zm2.777 0h.594v4.41h-.594v-4.41Zm2.777 0h.594v4.41h-.594v-4.41Zm2.77 0h.593v4.41h-.594v-4.41Zm2.777 0h.594v4.41h-.594v-4.41Zm28.174 0h.594v4.41h-.594v-4.41Zm2.777 0h.594v4.41h-.594v-4.41Zm2.777 0h.594v4.41h-.594v-4.41Zm2.77 0h.593v4.41h-.594v-4.41Zm2.777 0h.594v4.41h-.594v-4.41Zm2.777 0h.594v4.41h-.594v-4.41Zm-21.046.032h.594v4.41h-.594v-4.41Zm2.777 0h.594v4.41h-.594v-4.41Zm-15.155-5.651h-3.01V8.505a1.529 1.529 0 0 1 .881-1.58 1.511 1.511 0 0 1 1.763.381 1.526 1.526 0 0 1 .366 1.199v5.208Zm-2.327-.685h1.605V8.505a.93.93 0 0 0-.803-.992.93.93 0 0 0-.802.992v4.523Zm5.947.62h-3.01V8.433a1.522 1.522 0 0 1 .903-1.5 1.503 1.503 0 0 1 1.708.358 1.518 1.518 0 0 1 .4 1.142v5.216Zm-2.327-.685h1.605v-4.53a.808.808 0 0 0-.803-.807.801.801 0 0 0-.802.806v4.531Zm5.948.613h-3.026V8.368a1.529 1.529 0 0 1 .88-1.58 1.512 1.512 0 0 1 2.075.94c.063.208.082.425.054.64l.017 5.208Zm-2.328-.685h1.645V8.368a.922.922 0 0 0-.802-.984.922.922 0 0 0-.803.984l-.04 4.523Zm5.948.62h-3.01V8.295a1.523 1.523 0 0 1 .4-1.142 1.508 1.508 0 0 1 1.707-.358 1.508 1.508 0 0 1 .821.887c.069.197.097.406.082.613v5.216Zm-2.328-.685h1.605v-4.53a.808.808 0 0 0-.803-.807.8.8 0 0 0-.802.806v4.531Zm5.948.613h-3.042V8.23a1.532 1.532 0 0 1 .366-1.2 1.518 1.518 0 0 1 1.139-.515 1.511 1.511 0 0 1 1.138.516 1.526 1.526 0 0 1 .367 1.199l.032 5.208Zm-2.328-.685h1.605V8.23a.914.914 0 0 0-.802-.984.914.914 0 0 0-.803.984v4.523Zm-35.069 3.41h9.817v.685H6.582v-.685Zm47.326 0h10.01v.685h-10.01v-.685ZM7.609 26.749h12.948v.685H7.609v-.685Zm42.51.089h12.947v.685H50.12v-.685Z"/><path d="M28.125 45.598h14.93v.685h-14.93v-.685Zm-1.445 1.653h17.98v.685H26.68v-.685ZM46.522 2.709h.682v.089h-.682v-.089Z"/><path d="M52.962 5.095h-3.179V4.41h2.497V3.136H46.78v-.685h6.18v2.644Z"/><path d="M50.297 5.095h-32.79V2.451h5.764v.685h-5.08V4.41h32.106v.685Z"/><path d="M48.346 3.136H22.123V.5h26.223v2.636Zm-25.54-.685h24.882V1.185H22.805v1.266Zm-4.408 13.713h2.08v.685h-2.08v-.685Zm30.63 0h2.08v.685h-2.08v-.685Zm-8.58 28.555H30.013V29.257c0-2.46 2.32-4.467 5.177-4.467 2.858 0 5.242 2.008 5.242 4.467l.016 15.462Zm-9.736-.685h9.054V29.257c0-2.08-2.04-3.765-4.56-3.765-2.52 0-4.495 1.7-4.495 3.78v14.762Z"/><path d="M38.8 44.72h-7.128V33.367a3.594 3.594 0 0 1 1.125-2.38 3.564 3.564 0 0 1 4.879 0 3.594 3.594 0 0 1 1.124 2.38V44.72Zm-6.421-.686h5.755V33.368a2.906 2.906 0 0 0-.93-1.879 2.883 2.883 0 0 0-3.896 0 2.907 2.907 0 0 0-.93 1.88v10.665Zm-5.691-13.35a1.704 1.704 0 0 1-1.58-1.06 1.725 1.725 0 0 1 .37-1.872 1.707 1.707 0 0 1 2.92 1.215 1.73 1.73 0 0 1-.504 1.212c-.32.321-.753.503-1.206.505Zm0-2.75a1.024 1.024 0 0 0-.95.638 1.035 1.035 0 0 0 .75 1.407 1.023 1.023 0 0 0 1.054-.439c.113-.17.173-.37.173-.573a1.028 1.028 0 0 0-.627-.978 1.014 1.014 0 0 0-.4-.078v.024Zm17.089 2.75a1.704 1.704 0 0 1-1.58-1.06 1.724 1.724 0 0 1 .37-1.872 1.707 1.707 0 0 1 2.92 1.215 1.73 1.73 0 0 1-.504 1.212c-.32.321-.753.503-1.206.505Zm0-2.75a1.024 1.024 0 0 0-.95.638 1.036 1.036 0 0 0 .75 1.407 1.023 1.023 0 0 0 1.054-.439c.113-.17.173-.37.173-.573a1.036 1.036 0 0 0-.628-.976 1.022 1.022 0 0 0-.4-.08v.024ZM23.637 45.64h-.682V13.826l-17.538-.169v21.34h-.69V12.964l18.91.177V45.64Z"/><path d="M23.64 49.483H3.477v-5.45H23.64v5.45ZM4.167 48.79h18.782V44.68H4.168v4.111Zm62.873.71H46.805v-5.515H67.04V49.5Zm-19.553-.686h18.871V44.68h-18.87v4.135Z"/><path d="M7.232 45.792h.683v1.894h-.683v-1.894Zm1.71 0h.682v1.894h-.682v-1.894Zm1.71 0h.682v1.894h-.682v-1.894Zm1.71 0h.682v1.894h-.683v-1.894Zm1.71 0h.681v1.894h-.682v-1.894Zm1.709 0h.682v1.894h-.682v-1.894Zm1.71 0h.682v1.894h-.682v-1.894Zm1.71 0h.681v1.894H19.2v-1.894Zm31.4.008h.682v1.894h-.682V45.8Zm1.71 0h.682v1.894h-.682V45.8Zm1.71 0h.682v1.894h-.683V45.8Zm1.709 0h.682v1.894h-.682V45.8Zm1.702 0h.682v1.894h-.682V45.8Zm1.71 0h.682v1.894h-.683V45.8Zm1.71 0h.681v1.894h-.682V45.8Zm1.709 0h.682v1.894h-.682V45.8ZM25.252 13.713H3.211V7.885h22.041v5.829Zm-21.359-.685h20.67V8.562H3.892v4.466Zm63.323.685H45.175V7.885h22.041v5.829Zm-21.359-.685h20.677V8.562H45.857v4.466Z"/><path d="M19.216 4.418h.682v4.103h-.682V4.418Zm31.352 0h.683v4.103h-.682V4.418ZM7.907 9.852h.683v1.894h-.683V9.852Zm1.71 0h.682v1.894h-.682V9.852Zm1.71 0h.682v1.894h-.682V9.852Zm1.71 0h.682v1.894h-.683V9.852Zm1.701 0h.682v1.894h-.682V9.852Zm1.71 0h.682v1.894h-.682V9.852Zm1.71 0h.682v1.894h-.683V9.852Zm1.71 0h.681v1.894h-.682V9.852Zm30.003 0h.682v1.894h-.682V9.852Zm1.71 0h.682v1.894h-.682V9.852Zm1.71 0h.682v1.894h-.683V9.852Zm1.71 0h.681v1.894H55V9.852Zm1.709 0h.682v1.894h-.682V9.852Zm1.71 0h.682v1.894h-.682V9.852Zm1.71 0h.682v1.894h-.683V9.852Zm1.709 0h.682v1.894h-.682V9.852Zm-38.649 6.99h23.583v.685H23.189v-.686Z"/></g><defs><clipPath id="a"><path fill="#fff" transform="translate(0 0.5)" d="M0 0h72v49H0z"/></clipPath></defs></svg>